<?xml version="1.0" encoding="utf-8"?>
<!-- Generator: Adobe Illustrator 19.1.0, SVG Export Plug-In . SVG Version: 6.00 Build 0)  -->
<svg version="1.1" xmlns="http://www.w3.org/2000/svg" xmlns:xlink="http://www.w3.org/1999/xlink" x="0px" y="0px"
	 viewBox="0 0 172 170" style="enable-background:new 0 0 172 170;" xml:space="preserve">
<style type="text/css">
	.st0{fill:#C8090D;}
	.st1{fill:#FF2A00;}
	.st2{fill:#FF6100;}
	.st3{fill:#FF9700;}
	.st4{fill:#FFCC00;}
	.st5{fill:#C8090D;stroke:#C8090D;stroke-width:1.3581;stroke-miterlimit:10;}
	.st6{fill:#FF6100;stroke:#FF6100;stroke-width:1.3581;stroke-miterlimit:10;}
	.st7{fill:#FF2A00;stroke:#FF2A00;stroke-width:1.3581;stroke-miterlimit:10;}
	.st8{fill:#FFCC00;stroke:#FFCC00;stroke-width:2.2636;stroke-miterlimit:10;}
</style>
<g id="Background">
</g>
<g id="Ribbons">
</g>
<g id="Icons">
</g>
<g id="Dividers">
</g>
<g id="Shadows_between">
	<g>
		<g>
			<g>
				<path class="st5" d="M34.5,21.3h-10c-1.4,0-2.5,1.1-2.5,2.5v10c0,1.4,1.1,2.5,2.5,2.5h10c1.4,0,2.5-1.1,2.5-2.5v-10
					C37.1,22.4,35.9,21.3,34.5,21.3z M32,31.3h-5v-5h5V31.3z"/>
			</g>
		</g>
		<g>
			<g>
				<path class="st5" d="M34.5,134.6h-10c-1.4,0-2.5,1.1-2.5,2.5v10c0,1.4,1.1,2.5,2.5,2.5h10c1.4,0,2.5-1.1,2.5-2.5v-10
					C37.1,135.8,35.9,134.6,34.5,134.6z M32,144.7h-5v-5h5V144.7z"/>
			</g>
		</g>
		<g>
			<g>
				<path class="st5" d="M147.9,21.3h-10c-1.4,0-2.5,1.1-2.5,2.5v10c0,1.4,1.1,2.5,2.5,2.5h10c1.4,0,2.5-1.1,2.5-2.5v-10
					C150.4,22.4,149.3,21.3,147.9,21.3z M145.4,31.3h-5v-5h5V31.3z"/>
			</g>
		</g>
		<g>
			<g>
				<path class="st5" d="M147.9,134.6h-10c-1.4,0-2.5,1.1-2.5,2.5v10c0,1.4,1.1,2.5,2.5,2.5h10c1.4,0,2.5-1.1,2.5-2.5v-10
					C150.4,135.8,149.3,134.6,147.9,134.6z M145.4,144.7h-5v-5h5V144.7z"/>
			</g>
		</g>
		<g>
			<g>
				<path class="st5" d="M81.2,42.1H45.3c-1.4,0-2.5,1.1-2.5,2.5v35.9c0,1.4,1.1,2.5,2.5,2.5h35.9c1.4,0,2.5-1.1,2.5-2.5V44.6
					C83.7,43.2,82.6,42.1,81.2,42.1z M78.7,78H47.8V47.1h30.8V78z"/>
			</g>
		</g>
		<g>
			<g>
				<path class="st5" d="M135,79.2l-20.8-35.9c-0.4-0.8-1.3-1.2-2.2-1.2c-0.9,0-1.7,0.5-2.2,1.2L89,79.2c-0.5,0.8-0.5,1.7,0,2.5
					c0.4,0.8,1.3,1.3,2.2,1.3h41.6c0.9,0,1.7-0.5,2.2-1.3C135.5,81,135.5,80,135,79.2z M95.6,78L112,49.6L128.5,78H95.6z"/>
			</g>
		</g>
		<g>
			<g>
				<path class="st5" d="M62.9,88.8c-11.1,0-20.1,9-20.1,20.1s9,20.1,20.1,20.1s20.1-9,20.1-20.1S73.9,88.8,62.9,88.8z M62.9,123.9
					c-8.3,0-15-6.7-15-15s6.7-15,15-15s15,6.7,15,15S71.2,123.9,62.9,123.9z"/>
			</g>
		</g>
		<g>
			<g>
				<path class="st5" d="M128.8,93.8c-1-1-2.6-1-3.5,0l-30.8,30.8c-1,1-1,2.6,0,3.5c0.5,0.5,1.1,0.7,1.8,0.7c0.6,0,1.3-0.2,1.8-0.7
					l30.8-30.8C129.8,96.3,129.8,94.7,128.8,93.8z"/>
			</g>
		</g>
		<g>
			<g>
				<path class="st5" d="M29.5,42.1c-1.4,0-2.5,1.1-2.5,2.5v5c0,1.4,1.1,2.5,2.5,2.5c1.4,0,2.5-1.1,2.5-2.5v-5
					C32,43.2,30.9,42.1,29.5,42.1z"/>
			</g>
		</g>
		<g>
			<g>
				<path class="st5" d="M29.5,57.9c-1.4,0-2.5,1.1-2.5,2.5v5c0,1.4,1.1,2.5,2.5,2.5c1.4,0,2.5-1.1,2.5-2.5v-5
					C32,59,30.9,57.9,29.5,57.9z"/>
			</g>
		</g>
		<g>
			<g>
				<path class="st5" d="M29.5,73c-1.4,0-2.5,1.1-2.5,2.5v5c0,1.4,1.1,2.5,2.5,2.5c1.4,0,2.5-1.1,2.5-2.5v-5
					C32,74.1,30.9,73,29.5,73z"/>
			</g>
		</g>
		<g>
			<g>
				<path class="st5" d="M29.5,88c-1.4,0-2.5,1.1-2.5,2.5v5c0,1.4,1.1,2.5,2.5,2.5c1.4,0,2.5-1.1,2.5-2.5v-5
					C32,89.1,30.9,88,29.5,88z"/>
			</g>
		</g>
		<g>
			<g>
				<path class="st5" d="M29.5,103c-1.4,0-2.5,1.1-2.5,2.5v5.8c0,1.4,1.1,2.5,2.5,2.5c1.4,0,2.5-1.1,2.5-2.5v-5.8
					C32,104.2,30.9,103,29.5,103z"/>
			</g>
		</g>
		<g>
			<g>
				<path class="st5" d="M29.5,118.8c-1.4,0-2.5,1.1-2.5,2.5v5c0,1.4,1.1,2.5,2.5,2.5c1.4,0,2.5-1.1,2.5-2.5v-5
					C32,120,30.9,118.8,29.5,118.8z"/>
			</g>
		</g>
		<g>
			<g>
				<path class="st5" d="M142.9,42.1c-1.4,0-2.5,1.1-2.5,2.5v5c0,1.4,1.1,2.5,2.5,2.5c1.4,0,2.5-1.1,2.5-2.5v-5
					C145.4,43.2,144.2,42.1,142.9,42.1z"/>
			</g>
		</g>
		<g>
			<g>
				<path class="st5" d="M142.9,57.9c-1.4,0-2.5,1.1-2.5,2.5v5c0,1.4,1.1,2.5,2.5,2.5c1.4,0,2.5-1.1,2.5-2.5v-5
					C145.4,59,144.2,57.9,142.9,57.9z"/>
			</g>
		</g>
		<g>
			<g>
				<path class="st5" d="M142.9,73c-1.4,0-2.5,1.1-2.5,2.5v5c0,1.4,1.1,2.5,2.5,2.5c1.4,0,2.5-1.1,2.5-2.5v-5
					C145.4,74.1,144.2,73,142.9,73z"/>
			</g>
		</g>
		<g>
			<g>
				<path class="st5" d="M142.9,88c-1.4,0-2.5,1.1-2.5,2.5v5c0,1.4,1.1,2.5,2.5,2.5c1.4,0,2.5-1.1,2.5-2.5v-5
					C145.4,89.1,144.2,88,142.9,88z"/>
			</g>
		</g>
		<g>
			<g>
				<path class="st5" d="M142.9,103c-1.4,0-2.5,1.1-2.5,2.5v5.8c0,1.4,1.1,2.5,2.5,2.5c1.4,0,2.5-1.1,2.5-2.5v-5.8
					C145.4,104.2,144.2,103,142.9,103z"/>
			</g>
		</g>
		<g>
			<g>
				<path class="st5" d="M142.9,118.8c-1.4,0-2.5,1.1-2.5,2.5v5c0,1.4,1.1,2.5,2.5,2.5c1.4,0,2.5-1.1,2.5-2.5v-5
					C145.4,120,144.2,118.8,142.9,118.8z"/>
			</g>
		</g>
		<g>
			<g>
				<path class="st5" d="M51.1,139.7h-5.8c-1.4,0-2.5,1.1-2.5,2.5s1.1,2.5,2.5,2.5h5.8c1.4,0,2.5-1.1,2.5-2.5S52.5,139.7,51.1,139.7
					z"/>
			</g>
		</g>
		<g>
			<g>
				<path class="st5" d="M66.1,139.7h-5c-1.4,0-2.5,1.1-2.5,2.5s1.1,2.5,2.5,2.5h5c1.4,0,2.5-1.1,2.5-2.5S67.5,139.7,66.1,139.7z"/>
			</g>
		</g>
		<g>
			<g>
				<path class="st5" d="M81.2,139.7h-5c-1.4,0-2.5,1.1-2.5,2.5s1.1,2.5,2.5,2.5h5c1.4,0,2.5-1.1,2.5-2.5S82.6,139.7,81.2,139.7z"/>
			</g>
		</g>
		<g>
			<g>
				<path class="st5" d="M96.2,139.7h-5c-1.4,0-2.5,1.1-2.5,2.5s1.1,2.5,2.5,2.5h5c1.4,0,2.5-1.1,2.5-2.5S97.6,139.7,96.2,139.7z"/>
			</g>
		</g>
		<g>
			<g>
				<path class="st5" d="M112,139.7h-5c-1.4,0-2.5,1.1-2.5,2.5s1.1,2.5,2.5,2.5h5c1.4,0,2.5-1.1,2.5-2.5S113.4,139.7,112,139.7z"/>
			</g>
		</g>
		<g>
			<g>
				<path class="st5" d="M127.1,139.7h-5c-1.4,0-2.5,1.1-2.5,2.5s1.1,2.5,2.5,2.5h5c1.4,0,2.5-1.1,2.5-2.5S128.5,139.7,127.1,139.7z
					"/>
			</g>
		</g>
		<g>
			<g>
				<path class="st5" d="M51.1,26.3h-5.8c-1.4,0-2.5,1.1-2.5,2.5s1.1,2.5,2.5,2.5h5.8c1.4,0,2.5-1.1,2.5-2.5S52.5,26.3,51.1,26.3z"
					/>
			</g>
		</g>
		<g>
			<g>
				<path class="st5" d="M66.1,26.3h-5c-1.4,0-2.5,1.1-2.5,2.5s1.1,2.5,2.5,2.5h5c1.4,0,2.5-1.1,2.5-2.5S67.5,26.3,66.1,26.3z"/>
			</g>
		</g>
		<g>
			<g>
				<path class="st5" d="M81.2,26.3h-5c-1.4,0-2.5,1.1-2.5,2.5s1.1,2.5,2.5,2.5h5c1.4,0,2.5-1.1,2.5-2.5S82.6,26.3,81.2,26.3z"/>
			</g>
		</g>
		<g>
			<g>
				<path class="st5" d="M96.2,26.3h-5c-1.4,0-2.5,1.1-2.5,2.5s1.1,2.5,2.5,2.5h5c1.4,0,2.5-1.1,2.5-2.5S97.6,26.3,96.2,26.3z"/>
			</g>
		</g>
		<g>
			<g>
				<path class="st5" d="M112,26.3h-5c-1.4,0-2.5,1.1-2.5,2.5s1.1,2.5,2.5,2.5h5c1.4,0,2.5-1.1,2.5-2.5S113.4,26.3,112,26.3z"/>
			</g>
		</g>
		<g>
			<g>
				<path class="st5" d="M127.1,26.3h-5c-1.4,0-2.5,1.1-2.5,2.5s1.1,2.5,2.5,2.5h5c1.4,0,2.5-1.1,2.5-2.5S128.5,26.3,127.1,26.3z"/>
			</g>
		</g>
	</g>
</g>
</svg>
