<?xml version="1.0" encoding="utf-8"?>
<!-- Generator: Adobe Illustrator 19.1.0, SVG Export Plug-In . SVG Version: 6.00 Build 0)  -->
<svg version="1.1" xmlns="http://www.w3.org/2000/svg" xmlns:xlink="http://www.w3.org/1999/xlink" x="0px" y="0px"
	 viewBox="0 0 172 170" style="enable-background:new 0 0 172 170;" xml:space="preserve">
<style type="text/css">
	.st0{fill:#C8090D;}
	.st1{fill:#FF2A00;}
	.st2{fill:#FF6100;}
	.st3{fill:#FF9700;}
	.st4{fill:#FFCC00;}
	.st5{fill:#C8090D;stroke:#C8090D;stroke-width:1.3581;stroke-miterlimit:10;}
	.st6{fill:#FF6100;stroke:#FF6100;stroke-width:1.3581;stroke-miterlimit:10;}
	.st7{fill:#FF2A00;stroke:#FF2A00;stroke-width:1.3581;stroke-miterlimit:10;}
	.st8{fill:#FFCC00;stroke:#FFCC00;stroke-width:2.2636;stroke-miterlimit:10;}
</style>
<g id="Background">
</g>
<g id="Ribbons">
</g>
<g id="Icons">
</g>
<g id="Dividers">
</g>
<g id="Shadows_between">
	<g>
		<path class="st7" d="M85.7,48.9c1.4,0,2.5-1.1,2.5-2.5v-10c0-1.4-1.1-2.5-2.5-2.5s-2.5,1.1-2.5,2.5v10
			C83.2,47.8,84.3,48.9,85.7,48.9z"/>
		<path class="st7" d="M58.1,96.5c4.1,0,7.5-3.4,7.5-7.5s-3.4-7.5-7.5-7.5s-7.5,3.4-7.5,7.5S54,96.5,58.1,96.5z M58.1,86.5
			c1.4,0,2.5,1.1,2.5,2.5s-1.1,2.5-2.5,2.5c-1.4,0-2.5-1.1-2.5-2.5S56.7,86.5,58.1,86.5z"/>
		<path class="st7" d="M70.7,71.5h20.1c1.4,0,2.5-1.1,2.5-2.5s-1.1-2.5-2.5-2.5H70.7c-1.4,0-2.5,1.1-2.5,2.5S69.3,71.5,70.7,71.5z"
			/>
		<path class="st7" d="M100.7,66.4c1.4,0,2.5,1.1,2.5,2.5s-1.1,2.5-2.5,2.5c-1.4,0-2.5-1.1-2.5-2.5S99.4,66.4,100.7,66.4z"/>
		<path class="st7" d="M31.9,113.1h7.5c2.6,5.7,6.5,10.9,11.3,14.9v13.8c0,4.3,3.5,7.8,7.8,7.8h4.4c4.3,0,7.8-3.5,7.8-7.8v-4.4
			c2.5,0.4,5,0.7,7.5,0.7h15c2.5,0,5-0.2,7.5-0.7v4.4c0,4.3,3.5,7.8,7.8,7.8h4.4c4.3,0,7.8-3.5,7.8-7.8V128
			c8.2-7,13.9-18.5,14.9-30.3c0-0.5,0.1-1,0.1-1.5c3.9-0.5,8.6-2.1,11.4-5c5.3-5.3,6.4-12.9,3.8-19.2c-0.9-2.1-2.1-4-3.8-5.6
			c-1-1-2.6-1-3.5,0c-1,1-1,2.6,0,3.5c1.2,1.2,2.1,2.5,2.7,4c1.9,4.5,1.1,10-2.7,13.7c-1.6,1.6-4.8,3-8,3.5
			c-1.4-18.2-15.1-33.9-33.5-38.5c2.3-3.3,3.5-7.3,3.5-11.4c0-11.1-9-20.1-20.1-20.1c-11.1,0-20.1,9-20.1,20.1c0,3.9,1.2,7.8,3.3,11
			c-3.5,0.8-7,2-10.2,3.7c-2.9-5.7-8.7-9.5-15.3-9.7c-0.8,0-1.5,0.3-2.1,0.8c-0.5,0.5-0.9,1.3-0.9,2v24.7c-2.1,3.9-3.6,8.2-4.4,12.6
			h-4.4c-4.3,0-7.8,3.5-7.8,7.8v10.9C24,109.6,27.5,113.1,31.9,113.1z M85.7,26.3c8.3,0,15,6.7,15,15c0,8.3-6.8,15-15,15
			c-8.2,0-15-6.6-15-15C70.7,33.1,77.4,26.3,85.7,26.3z M29,94.3c0-1.6,1.3-2.8,2.8-2.8h6.2c1.4,0,2.6-1.1,2.8-2.4
			c0.6-4.6,2.1-9.1,4.3-13.2c0.2-0.4,0.4-0.9,0.4-1.4V51.6c4.4,0.9,8,4.1,9.4,8.4c0.3,0.8,0.9,1.5,1.7,1.8c0.8,0.3,1.7,0.2,2.4-0.2
			c4.3-2.5,8.9-4.1,13.8-4.8c3.6,3,8.1,4.6,12.8,4.6c4.6,0,9-1.6,12.5-4.4c18.5,3.3,32.5,19,32.6,36.9c0,1.1,0,2.3-0.1,3.4
			c-0.9,10.8-6.2,21.3-13.9,27.5c-0.7,0.5-1,1.3-1,2.2v14.9c0,1.6-1.3,2.8-2.8,2.8h-4.4c-1.6,0-2.8-1.3-2.8-2.8v-12.5
			c0-1.4-1.1-2.5-2.5-2.5s-2.5,1.1-2.5,2.5v3c-2.5,0.5-5,0.8-7.5,0.8h-15c-2.5,0-5.1-0.3-7.5-0.8v-3c0-1.4-1.1-2.5-2.5-2.5
			c-1.4,0-2.5,1.1-2.5,2.5v12.5c0,1.6-1.3,2.8-2.8,2.8h-4.4c-1.6,0-2.8-1.3-2.8-2.8V127c0-0.9-0.4-1.7-1-2.2c-4.9-4-8.8-9.2-11.2-15
			c-0.4-1-1.5-1.7-2.6-1.7h-8.9c-1.6,0-2.8-1.3-2.8-2.8V94.3z"/>
	</g>
</g>
</svg>
