<?xml version="1.0" encoding="utf-8"?>
<!-- Generator: Adobe Illustrator 19.1.0, SVG Export Plug-In . SVG Version: 6.00 Build 0)  -->
<svg version="1.1" xmlns="http://www.w3.org/2000/svg" xmlns:xlink="http://www.w3.org/1999/xlink" x="0px" y="0px"
	 viewBox="0 0 172 170" style="enable-background:new 0 0 172 170;" xml:space="preserve">
<style type="text/css">
	.st0{fill:#C8090D;}
	.st1{fill:#FF2A00;}
	.st2{fill:#FF6100;}
	.st3{fill:#FF9700;}
	.st4{fill:#FFCC00;}
	.st5{fill:#C8090D;stroke:#C8090D;stroke-width:1.3581;stroke-miterlimit:10;}
	.st6{fill:#FF6100;stroke:#FF6100;stroke-width:1.3581;stroke-miterlimit:10;}
	.st7{fill:#FF2A00;stroke:#FF2A00;stroke-width:1.3581;stroke-miterlimit:10;}
	.st8{fill:#FFCC00;stroke:#FFCC00;stroke-width:2.2636;stroke-miterlimit:10;}
</style>
<g id="Background">
</g>
<g id="Ribbons">
</g>
<g id="Icons">
</g>
<g id="Dividers">
</g>
<g id="Shadows_between">
	<g>
		<path class="st3" d="M127.1,150.4c-0.8,0-1.6,0.3-2.2,0.9c-0.6,0.6-0.9,1.4-0.9,2.2c0,0.8,0.3,1.6,0.9,2.2
			c0.6,0.6,1.4,0.9,2.2,0.9c0.8,0,1.6-0.3,2.2-0.9c0.6-0.6,0.9-1.4,0.9-2.2c0-0.8-0.3-1.6-0.9-2.2
			C128.7,150.8,127.9,150.4,127.1,150.4z"/>
		<path class="st3" d="M164.4,151.6L141.6,123c-0.5-0.6-1.1-1-1.8-1.1c-0.1,0-10.4-1.9-24.6-6.6c-9.5-3.1-17.4-3.1-23.4,0.1
			c-2.3,1.2-3.9,2.7-5.2,4.1c-1.2-1.4-2.9-2.9-5.2-4.1c-6-3.1-13.8-3.2-23.4-0.1c-14.2,4.6-24.5,6.5-24.6,6.6
			c-0.7,0.1-1.4,0.5-1.8,1.1L9,151.6c-0.7,0.9-0.9,2.2-0.4,3.2c0.5,1.1,1.6,1.7,2.8,1.7h65.3c1.3,4.3,5.3,7.4,10,7.4
			c4.7,0,8.6-3.1,10-7.4h18.1c1.7,0,3.1-1.4,3.1-3.1c0-1.7-1.4-3.1-3.1-3.1H96.1l-6-6c0.8-1.5,2.6-4.5,6.5-6.5
			c6-3.1,14.2-3,24.6,0.4c16.1,5.2,28.1,7.8,31.5,8.5l2.9,3.7h-16.1c-1.7,0-3.1,1.4-3.1,3.1c0,1.7,1.4,3.1,3.1,3.1H162
			c1.2,0,2.2-0.7,2.8-1.7C165.3,153.8,165.1,152.5,164.4,151.6z M35.8,127.7c3.1-0.6,12.2-2.6,24.2-6.5c8.4-2.7,15.1-2.7,19.5,0.2
			c2.6,1.7,3.7,3.8,4,4.6v9.2c-1.1-1-2.4-1.9-4-2.7c-7.5-3.9-17.3-3.9-29.3,0c-9.7,3.1-17.9,5.3-23.6,6.7L35.8,127.7z M20.6,146.8
			c3.4-0.7,15.4-3.2,31.5-8.5c10.3-3.3,18.5-3.5,24.5-0.5c3.9,2,5.8,4.9,6.6,6.5l-6.1,6.1H17.7L20.6,146.8z M86.6,157.8
			c-2.2,0-4.1-1.7-4.3-3.9l4.3-4.3l4.3,4.3C90.7,156.1,88.9,157.8,86.6,157.8z M123.1,132.5c-12-3.9-21.9-3.9-29.3,0
			c-1.5,0.8-2.9,1.7-4,2.7v-9.2c0.4-0.9,1.7-3.4,4.9-5.1c4.4-2.3,10.8-2.2,18.6,0.3c12,3.9,21.1,5.9,24.2,6.5l9.1,11.5
			C141,137.8,132.7,135.6,123.1,132.5z"/>
		<path class="st3" d="M24.8,110.9c0.4,1.4,1.6,2.3,3,2.3c0.3,0,0.5,0,0.8-0.1c1.6-0.4,2.6-2.1,2.2-3.7L14.2,45.5
			c-0.4-1.6-2.1-2.6-3.7-2.2c-1.6,0.4-2.6,2.1-2.2,3.7L24.8,110.9z"/>
		<path class="st3" d="M144.7,113.1c0.3,0.1,0.5,0.1,0.8,0.1c1.4,0,2.6-0.9,3-2.3L165,47c0.4-1.6-0.6-3.3-2.2-3.7
			c-1.6-0.4-3.3,0.6-3.7,2.2l-16.5,63.9C142.1,111,143,112.7,144.7,113.1z"/>
		<path class="st3" d="M39,17.1c1.7,0,3.1-1.4,3.1-3.1v-3.9c0-1.7-1.4-3.1-3.1-3.1c-1.7,0-3.1,1.4-3.1,3.1V14
			C36,15.7,37.3,17.1,39,17.1z"/>
		<path class="st3" d="M39,35.6c1.7,0,3.1-1.4,3.1-3.1v-3.9c0-1.7-1.4-3.1-3.1-3.1c-1.7,0-3.1,1.4-3.1,3.1v3.9
			C36,34.3,37.3,35.6,39,35.6z"/>
		<path class="st3" d="M46.4,24.4h3.9c1.7,0,3.1-1.4,3.1-3.1c0-1.7-1.4-3.1-3.1-3.1h-3.9c-1.7,0-3.1,1.4-3.1,3.1
			C43.3,23,44.7,24.4,46.4,24.4z"/>
		<path class="st3" d="M27.8,24.4h3.9c1.7,0,3.1-1.4,3.1-3.1c0-1.7-1.4-3.1-3.1-3.1h-3.9c-1.7,0-3.1,1.4-3.1,3.1
			C24.7,23,26.1,24.4,27.8,24.4z"/>
		<path class="st3" d="M120.3,74.3c0-1.7-1.4-3.1-3.1-3.1c-1.7,0-3.1,1.4-3.1,3.1v3.9c0,1.7,1.4,3.1,3.1,3.1c1.7,0,3.1-1.4,3.1-3.1
			V74.3z"/>
		<path class="st3" d="M117.3,89.8c-1.7,0-3.1,1.4-3.1,3.1v3.9c0,1.7,1.4,3.1,3.1,3.1c1.7,0,3.1-1.4,3.1-3.1v-3.9
			C120.3,91.2,118.9,89.8,117.3,89.8z"/>
		<path class="st3" d="M124.6,82.5c-1.7,0-3.1,1.4-3.1,3.1c0,1.7,1.4,3.1,3.1,3.1h3.9c1.7,0,3.1-1.4,3.1-3.1c0-1.7-1.4-3.1-3.1-3.1
			H124.6z"/>
		<path class="st3" d="M109.9,82.5H106c-1.7,0-3.1,1.4-3.1,3.1c0,1.7,1.4,3.1,3.1,3.1h3.9c1.7,0,3.1-1.4,3.1-3.1
			C113,83.8,111.6,82.5,109.9,82.5z"/>
		<path class="st3" d="M39.3,54.3c-1.2,0.2-2.1,1-2.5,2.1c-0.4,1.1-0.1,2.3,0.8,3.1l8.8,8.5l-2.1,12.1c-0.2,1.1,0.3,2.3,1.2,3
			c0.5,0.4,1.2,0.6,1.8,0.6c0.5,0,1-0.1,1.4-0.4l10.8-5.7l10.8,5.7c1,0.5,2.3,0.5,3.2-0.2c0.9-0.7,1.4-1.8,1.2-3L72.8,68l8.8-8.5
			c0.8-0.8,1.1-2,0.8-3.1c-0.4-1.1-1.3-1.9-2.5-2.1l-12.1-1.8l-5.4-11c-0.5-1-1.6-1.7-2.7-1.7c-1.2,0-2.2,0.7-2.7,1.7l-5.4,11
			L39.3,54.3z M56.2,56.7l3.4-6.8l3.4,6.8c0.4,0.9,1.3,1.5,2.3,1.7l7.6,1.1l-5.5,5.3c-0.7,0.7-1.1,1.7-0.9,2.7l1.3,7.5L61,71.5
			c-0.9-0.5-2-0.5-2.9,0L51.4,75l1.3-7.5c0.2-1-0.2-2-0.9-2.7l-5.5-5.3l7.6-1.1C54.9,58.2,55.8,57.6,56.2,56.7z"/>
		<path class="st3" d="M100.8,30.2l8.9,2.8l2.8,8.9c0.3,1.1,1.3,1.9,2.4,2.1c0.2,0,0.3,0,0.5,0c1,0,1.9-0.5,2.5-1.3l5.4-7.6l9.3,0.1
			c1.2,0,2.2-0.6,2.8-1.7c0.5-1,0.4-2.3-0.3-3.2l-5.6-7.4l3-8.8c0.4-1.1,0.1-2.3-0.7-3.1c-0.8-0.8-2-1.1-3.1-0.7l-8.8,3l-7.4-5.6
			c-0.9-0.7-2.2-0.8-3.2-0.3c-1,0.5-1.7,1.6-1.7,2.8l0.1,9.3l-7.6,5.4c-1,0.7-1.4,1.8-1.3,3C98.8,29,99.7,29.9,100.8,30.2z
			 M112.4,23.5c0.8-0.6,1.3-1.5,1.3-2.5l-0.1-4.7l3.8,2.8c0.8,0.6,1.9,0.8,2.8,0.4l4.4-1.5l-1.5,4.4c-0.3,1-0.2,2,0.4,2.8l2.8,3.8
			l-4.7-0.1c0,0,0,0,0,0c-1,0-1.9,0.5-2.5,1.3l-2.7,3.8l-1.4-4.5c-0.3-1-1.1-1.7-2-2l-4.5-1.4L112.4,23.5z"/>
		<path class="st3" d="M82.6,48.9c1.7,0,3.1-1.4,3.1-3.1V27.7c0-1.7-1.4-3.1-3.1-3.1c-1.7,0-3.1,1.4-3.1,3.1v18.1
			C79.6,47.5,81,48.9,82.6,48.9z"/>
		<path class="st3" d="M82.6,19.6c0.8,0,1.6-0.3,2.2-0.9c0.6-0.6,0.9-1.4,0.9-2.2c0-0.8-0.3-1.6-0.9-2.2c-0.6-0.6-1.4-0.9-2.2-0.9
			s-1.6,0.3-2.2,0.9c-0.6,0.6-0.9,1.4-0.9,2.2c0,0.8,0.3,1.6,0.9,2.2S81.8,19.6,82.6,19.6z"/>
	</g>
</g>
</svg>
