<?xml version="1.0" encoding="utf-8"?>
<!-- Generator: Adobe Illustrator 19.1.0, SVG Export Plug-In . SVG Version: 6.00 Build 0)  -->
<svg version="1.1" xmlns="http://www.w3.org/2000/svg" xmlns:xlink="http://www.w3.org/1999/xlink" x="0px" y="0px"
	 viewBox="0 0 172 170" style="enable-background:new 0 0 172 170;" xml:space="preserve">
<style type="text/css">
	.st0{fill:#C8090D;}
	.st1{fill:#FF2A00;}
	.st2{fill:#FF6100;}
	.st3{fill:#FF9700;}
	.st4{fill:#FFCC00;}
	.st5{fill:#C8090D;stroke:#C8090D;stroke-width:1.3581;stroke-miterlimit:10;}
	.st6{fill:#FF6100;stroke:#FF6100;stroke-width:1.3581;stroke-miterlimit:10;}
	.st7{fill:#FF2A00;stroke:#FF2A00;stroke-width:1.3581;stroke-miterlimit:10;}
	.st8{fill:#FFCC00;stroke:#FFCC00;stroke-width:2.2636;stroke-miterlimit:10;}
</style>
<g id="Background">
</g>
<g id="Ribbons">
</g>
<g id="Icons">
</g>
<g id="Dividers">
</g>
<g id="Shadows_between">
	<g>
		<g>
			<g>
				<path class="st6" d="M149.4,131.1c-1.4,0-2.5,1.1-2.5,2.5s1.1,2.5,2.5,2.5s2.5-1.1,2.5-2.5C151.9,132.3,150.8,131.1,149.4,131.1
					z"/>
			</g>
		</g>
		<g>
			<g>
				<path class="st6" d="M87.7,21.3c-1.4,0-2.5,1.1-2.5,2.5s1.1,2.5,2.5,2.5s2.5-1.1,2.5-2.5C90.2,22.4,89.1,21.3,87.7,21.3z"/>
			</g>
		</g>
		<g>
			<g>
				<path class="st6" d="M26,131.1c-1.4,0-2.5,1.1-2.5,2.5s1.1,2.5,2.5,2.5c1.4,0,2.5-1.1,2.5-2.5S27.4,131.1,26,131.1z"/>
			</g>
		</g>
		<g>
			<g>
				<path class="st6" d="M140.7,126.5l-10.4-6.4v-49c0-0.9-0.5-1.8-1.4-2.2l-38.8-20v-15c0-1.4-1.1-2.5-2.5-2.5s-2.5,1.1-2.5,2.5v15
					l-38.8,20c-0.8,0.4-1.4,1.3-1.4,2.2v49l-10.4,6.4c-1.2,0.7-1.5,2.3-0.8,3.4c0.5,0.8,1.3,1.2,2.1,1.2c0.4,0,0.9-0.1,1.3-0.4
					l10.3-6.3l38.8,24.9c0.4,0.3,0.9,0.4,1.4,0.4c0.5,0,0.9-0.1,1.4-0.4l38.8-24.9l10.3,6.3c0.4,0.3,0.9,0.4,1.3,0.4
					c0.8,0,1.7-0.4,2.1-1.2C142.3,128.8,141.9,127.2,140.7,126.5z M85.2,142.6l-32.9-21.1l23.8-14.6c1.2-0.7,1.5-2.3,0.8-3.4
					c-0.7-1.2-2.3-1.5-3.4-0.8L50.1,117V75.9l35.1,21V142.6L85.2,142.6z M87.7,92.6L52.4,71.5l32.8-16.9v26c0,1.4,1.1,2.5,2.5,2.5
					s2.5-1.1,2.5-2.5v-26L123,71.5L87.7,92.6z M125.3,117l-23.4-14.4c-1.2-0.7-2.7-0.4-3.4,0.8c-0.7,1.2-0.4,2.7,0.8,3.4l23.8,14.6
					l-32.9,21.1V96.9l35.1-21V117z"/>
			</g>
		</g>
	</g>
</g>
</svg>
