<?xml version="1.0" encoding="utf-8"?>
<!-- Generator: Adobe Illustrator 19.1.0, SVG Export Plug-In . SVG Version: 6.00 Build 0)  -->
<svg version="1.1" xmlns="http://www.w3.org/2000/svg" xmlns:xlink="http://www.w3.org/1999/xlink" x="0px" y="0px"
	 viewBox="0 0 172 170" style="enable-background:new 0 0 172 170;" xml:space="preserve">
<style type="text/css">
	.st0{fill:#C8090D;}
	.st1{fill:#FF2A00;}
	.st2{fill:#FF6100;}
	.st3{fill:#FF9700;}
	.st4{fill:#FFCC00;}
	.st5{fill:#C8090D;stroke:#C8090D;stroke-width:1.3581;stroke-miterlimit:10;}
	.st6{fill:#FF6100;stroke:#FF6100;stroke-width:1.3581;stroke-miterlimit:10;}
	.st7{fill:#FF2A00;stroke:#FF2A00;stroke-width:1.3581;stroke-miterlimit:10;}
	.st8{fill:#FFCC00;stroke:#FFCC00;stroke-width:2.2636;stroke-miterlimit:10;}
</style>
<g id="Background">
</g>
<g id="Ribbons">
</g>
<g id="Icons">
</g>
<g id="Dividers">
</g>
<g id="Shadows_between">
	<g>
		<path class="st8" d="M87.3,83.9c9.9,0,17.9-8.1,17.9-18.1c0-10-8-18.1-17.9-18.1s-17.9,8.1-17.9,18.1S77.4,83.9,87.3,83.9z
			 M87.3,51.8c7.7,0,13.9,6.3,13.9,14s-6.2,14-13.9,14s-13.9-6.3-13.9-14S79.7,51.8,87.3,51.8z"/>
		<path class="st8" d="M133,95c-0.3-0.7-1-1.2-1.8-1.2h-14c3-3.5,5.5-7.6,7.1-11.9c1.9-5,2.7-10.4,2.3-15.8
			c-0.7-9.8-4.9-19-11.9-25.9c-15.2-14.9-39.6-14.9-54.9,0c-7,6.9-11.2,16.1-11.9,25.9c-0.3,5.4,0.5,10.7,2.3,15.8
			c1.7,4.4,4.1,8.4,7.1,11.9H42.2c-0.8,0-1.5,0.5-1.8,1.2l-20.6,44.2c-0.5,1,0,2.2,1,2.6c0.3,0.1,0.6,0.2,0.9,0.2h130.2
			c1.1,0,2-0.9,2-2c0-0.3-0.1-0.6-0.2-0.9L133,95z M129.9,97.8l9.8,20.9H93.5l20-20.9H129.9z M54.1,80.5c-1.7-4.5-2.4-9.3-2.1-14.1
			c0.6-8.8,4.4-17.1,10.7-23.4c13.7-13.4,35.5-13.4,49.2,0c6.3,6.2,10.1,14.5,10.7,23.4c0.3,4.8-0.4,9.6-2.1,14.1
			c-1.7,4.5-4.4,8.7-8.1,12.6l-0.7,0.7h-0.1v0.1l-24.4,25.6L62.9,94v-0.1h-0.1l-0.7-0.7C58.5,89.2,55.8,85,54.1,80.5z M81.1,118.8
			H60.9l4.1-16.9L81.1,118.8z M43.5,97.8h17.6l0.5,0.5l-4.9,20.4h-23L43.5,97.8z M24.8,138l7.1-15.2H49L44.5,138H24.8z M48.7,138
			l4.5-15.2H85l0.9,0.9c0.8,0.8,2,0.8,2.8,0.1c0,0,0,0,0.1-0.1l0.9-0.9h17.9l4.5,15.2H48.7z M116.3,138l-4.5-15.2h29.8l7.1,15.2
			H116.3z"/>
	</g>
</g>
</svg>
