<svg id="Layer_1" data-name="Layer 1" xmlns="http://www.w3.org/2000/svg" viewBox="0 0 512 512"><defs><style>.cls-1{fill:#c8090d;}</style></defs><title>Векторный смарт-объект8</title><path class="cls-1" d="M500,0H12A12,12,0,0,0,0,12V500a12,12,0,0,0,12,12H500a12,12,0,0,0,12-12V12A12,12,0,0,0,500,0ZM24,24H97.17v86.37A37.25,37.25,0,0,1,60,147.58H24Zm0,191.19H165.38V250.6H24ZM190.19,488H150.38V427.88a12,12,0,1,0-24,0V488H86.57V364H190.19Zm77-67.2V488h-53V352a12,12,0,0,0-12-12H74.57a12,12,0,0,0-12,12V488H24V274.6H177.38a12,12,0,0,0,12-12V215.19h42.29A90.36,90.36,0,0,0,188.82,292a12,12,0,0,0,12,12h66.41V420.79Zm0-140.79H213.91a66.58,66.58,0,0,1,53.32-53.27Zm0-88.81H24V171.58H60a61.28,61.28,0,0,0,61.21-61.21V24H222.52a90.22,90.22,0,0,0-33.7,70.31,12,12,0,0,0,12,12h66.41v84.88Zm0-108.88H213.91A66.58,66.58,0,0,1,267.23,29Zm24,405.68V434a67,67,0,0,1,53.29,54Zm77.55,0c-5.33-40.63-37.28-72.89-77.55-78.31V215.19H403.52a12,12,0,0,0,0-24H291.24V94.32h0V24H488V488Z" transform="translate(0)"/><path class="cls-1" d="M454.89,200.84a11.91,11.91,0,0,0-1.78-4.31,11.94,11.94,0,0,0-1.49-1.82,11.51,11.51,0,0,0-1.83-1.5,11.73,11.73,0,0,0-2.07-1.1,11,11,0,0,0-2.25-.68,11.94,11.94,0,0,0-4.69,0,10.93,10.93,0,0,0-2.24.68,12.18,12.18,0,0,0-2.08,1.1,12.4,12.4,0,0,0-1.82,1.5,11.38,11.38,0,0,0-1.49,1.82,12.39,12.39,0,0,0-1.11,2.06,12.93,12.93,0,0,0-.68,2.25,11.7,11.7,0,0,0-.23,2.35,11.53,11.53,0,0,0,.23,2.34,12.33,12.33,0,0,0,.68,2.24,11.83,11.83,0,0,0,1.11,2.08,11.38,11.38,0,0,0,1.49,1.82,11.73,11.73,0,0,0,1.82,1.49,13,13,0,0,0,2.08,1.11,10.93,10.93,0,0,0,2.24.68,11.58,11.58,0,0,0,4.69,0,11,11,0,0,0,2.25-.68,12.1,12.1,0,0,0,2.07-1.11,10.93,10.93,0,0,0,1.83-1.49,11.94,11.94,0,0,0,1.49-1.82,11.78,11.78,0,0,0,1.1-2.08,12.21,12.21,0,0,0,.92-4.58A11.72,11.72,0,0,0,454.89,200.84Z" transform="translate(0)"/><path class="cls-1" d="M388,36.35A69.62,69.62,0,1,0,457.64,106,69.7,69.7,0,0,0,388,36.35Zm0,115.23A45.61,45.61,0,1,1,433.64,106,45.66,45.66,0,0,1,388,151.58Z" transform="translate(0)"/><path class="cls-1" d="M150.14,385.93a11,11,0,0,0-.68-2.25,12.43,12.43,0,0,0-1.11-2.07,11.45,11.45,0,0,0-1.49-1.83A12.1,12.1,0,0,0,136,376.5a12.32,12.32,0,0,0-4.32,1.79,11.45,11.45,0,0,0-1.83,1.49,11.94,11.94,0,0,0-1.49,1.82,12.14,12.14,0,0,0-1.1,2.08,11.12,11.12,0,0,0-.68,2.24,11.58,11.58,0,0,0,0,4.69,11.12,11.12,0,0,0,.68,2.24,12.14,12.14,0,0,0,1.1,2.08,11.94,11.94,0,0,0,1.49,1.82,11.45,11.45,0,0,0,1.83,1.49A12.32,12.32,0,0,0,136,400a11.89,11.89,0,0,0,10.82-3.28,11.45,11.45,0,0,0,1.49-1.83,12.32,12.32,0,0,0,1.79-4.32,11.48,11.48,0,0,0,0-4.67Z" transform="translate(0)"/></svg>