<svg id="Capa_1" data-name="Capa 1" xmlns="http://www.w3.org/2000/svg" viewBox="0 0 512 512"><defs><style>.cls-1{fill:#666;}</style></defs><title>Векторный смарт-объект9</title><path class="cls-1" d="M213,284a10,10,0,1,0,10,10A10,10,0,0,0,213,284Z" transform="translate(43 -38)"/><path class="cls-1" d="M459,404H403V118.14l63.07-63.07a10,10,0,0,0-14.14-14.14L388.86,104H103V48A10,10,0,0,0,93,38H33A10,10,0,0,0,23,48v56H-33a10,10,0,0,0-10,10v60a10,10,0,0,0,10,10H23V469.86l-63.07,63.07a10,10,0,0,0,0,14.14A10,10,0,0,0-33,550a10,10,0,0,0,7.07-2.93L37.14,484H323v56a10,10,0,0,0,10,10h60a10,10,0,0,0,10-10V484h56a10,10,0,0,0,10-10V414A10,10,0,0,0,459,404ZM43,58H83v46H43ZM323,464H43V184H83V414c0,.32,0,.63,0,.95,0,.15,0,.3.06.45s0,.34.08.51l.12.5.12.45c0,.17.11.32.17.48s.1.3.16.45.13.29.2.43.14.31.22.45.16.27.24.4.17.3.26.44.2.28.31.41.18.26.28.38.39.45.6.66l.06.07.07.06q.31.31.66.6L87,422c.14.1.27.21.42.3s.29.18.43.27l.41.24a4.69,4.69,0,0,0,.45.21l.43.21.45.16c.16.06.31.12.48.17l.45.11c.16,0,.33.09.5.12a4.34,4.34,0,0,0,.52.08L92,424c.33,0,.66.05,1,.05H323Zm0-60H117.14l74.66-74.66a10,10,0,1,0-14.14-14.14L103,389.86V184H308.86L234.2,258.66a10,10,0,1,0,14.14,14.14L323,198.14Zm60,126H343V174c0-.32,0-.63-.05-1,0-.15,0-.3-.06-.45s-.05-.34-.08-.51l-.12-.5-.12-.45c-.05-.16-.11-.32-.17-.48s-.1-.3-.16-.45-.13-.28-.2-.43-.14-.3-.22-.45-.16-.27-.24-.4-.17-.3-.26-.44-.2-.28-.31-.41-.18-.26-.28-.38-.39-.45-.6-.66l-.06-.07-.07-.06q-.31-.31-.66-.6c-.12-.1-.24-.18-.37-.27a4.13,4.13,0,0,0-.42-.31,3.78,3.78,0,0,0-.43-.26c-.13-.09-.27-.17-.41-.25l-.44-.21-.45-.21-.42-.15c-.17-.06-.33-.13-.5-.18l-.42-.11c-.18,0-.35-.09-.53-.12s-.31,0-.47-.08l-.5-.07-.8,0H-23V124H383Zm66-66H403V424h46Z" transform="translate(43 -38)"/></svg>