<svg id="Capa_1" data-name="Capa 1" xmlns="http://www.w3.org/2000/svg" viewBox="0 0 512 460"><defs><style>.cls-1{fill:#666;}</style></defs><title>Векторный смарт-объект10</title><path class="cls-1" d="M419,126a10,10,0,1,0,10,10A10,10,0,0,0,419,126Z" transform="translate(0 -26)"/><path class="cls-1" d="M482,66H99A50,50,0,0,0,0,76V436a52.09,52.09,0,0,0,.68,8.33C4.55,468.08,26.67,486,52.14,486H462a30,30,0,0,0,30-30V444.28A30,30,0,0,0,512,416V96A30,30,0,0,0,482,66ZM20,76a30,30,0,0,1,60,0V396a49.88,49.88,0,0,0-60,0ZM472,456a10,10,0,0,1-10,10H52.14c-15.77,0-29.41-10.7-31.72-24.89A31.73,31.73,0,0,1,20,436a30,30,0,0,1,60,0,10,10,0,0,0,10,10H472ZM213,302.54a66.66,66.66,0,0,0,30-7.13V426H183V295.41A66.66,66.66,0,0,0,213,302.54Zm-27.58-29L213,218.36l27.58,55.16A46.66,46.66,0,0,1,185.42,273.52ZM399,246h10v20H379a10,10,0,0,0,0,20h30v20H399a10,10,0,0,0,0,20h10v20H379a10,10,0,0,0,0,20h30v20H399a10,10,0,0,0,0,20h10v20H349V206h60v20H399a10,10,0,0,0,0,20Zm83,180H429V196a10,10,0,0,0-10-10H339a10,10,0,0,0-10,10V426H263V276a9.77,9.77,0,0,0-.06-1.08c0-.1,0-.2-.05-.3,0-.26-.08-.52-.13-.77s-.06-.22-.08-.33-.14-.5-.22-.75c0-.1-.07-.2-.11-.29-.1-.27-.22-.54-.34-.8a.69.69,0,0,0-.07-.15l-.07-.15s0,0,0-.05l-39.91-79.8a10,10,0,0,0-17.88,0l-39.91,79.8s0,0,0,.05l-.07.15a1,1,0,0,0-.07.15c-.12.26-.24.53-.34.8l-.11.29c-.08.25-.15.5-.22.75s0,.22-.08.33-.1.51-.13.77c0,.1,0,.2-.05.3A9.82,9.82,0,0,0,163,276V426H100V86H482a10,10,0,0,1,10,10V416h0A10,10,0,0,1,482,426Z" transform="translate(0 -26)"/><path class="cls-1" d="M379,126H173a10,10,0,0,0,0,20H379a10,10,0,0,0,0-20Z" transform="translate(0 -26)"/></svg>