<svg id="Capa_1" data-name="Capa 1" xmlns="http://www.w3.org/2000/svg" viewBox="0 0 404 512"><defs><style>.cls-1{fill:#666;}</style></defs><title>Векторный смарт-объект11</title><path class="cls-1" d="M448,258.1a10,10,0,0,0,10-10V90a50.06,50.06,0,0,0-50-50H340.22a27.22,27.22,0,0,0-21.47-10.5H302.48A50.12,50.12,0,0,0,256.88,0h-1.76a50.12,50.12,0,0,0-45.6,29.5H193.25A27.22,27.22,0,0,0,171.78,40H104A50.06,50.06,0,0,0,54,90V462a50.06,50.06,0,0,0,50,50H408a50.06,50.06,0,0,0,50-50V331.94a10,10,0,0,0-20,0V462a30,30,0,0,1-30,30H104a30,30,0,0,1-30-30V90a30,30,0,0,1,30-30h62V80H114a20,20,0,0,0-20,20V452a20,20,0,0,0,20,20H398a20,20,0,0,0,20-20V100a20,20,0,0,0-20-20H346V60h62a30,30,0,0,1,30,30V248.1A10,10,0,0,0,448,258.1ZM186,56.75a7.26,7.26,0,0,1,7.25-7.25h23.27a10,10,0,0,0,9.66-7.38A30,30,0,0,1,255.12,20h1.76a30,30,0,0,1,28.94,22.12,10,10,0,0,0,9.66,7.38h23.27A7.26,7.26,0,0,1,326,56.75V80H186ZM398,100V452H114V100H398Z" transform="translate(-54 0)"/><path class="cls-1" d="M455.07,283.83A10,10,0,1,0,458,290.9,10.08,10.08,0,0,0,455.07,283.83Z" transform="translate(-54 0)"/><path class="cls-1" d="M270.07,178.93A10,10,0,1,0,273,186,10.08,10.08,0,0,0,270.07,178.93Z" transform="translate(-54 0)"/><path class="cls-1" d="M366.48,176H307a10,10,0,0,0,0,20h59.48a10,10,0,0,0,0-20Z" transform="translate(-54 0)"/><path class="cls-1" d="M366.48,284H263a10,10,0,0,0,0,20H366.48a10,10,0,0,0,0-20Z" transform="translate(-54 0)"/><path class="cls-1" d="M366.48,392H263a10,10,0,0,0,0,20H366.48a10,10,0,0,0,0-20Z" transform="translate(-54 0)"/><path class="cls-1" d="M200,176H162V138a10,10,0,0,0-20,0v48a10,10,0,0,0,10,10h48a10,10,0,0,0,0-20Z" transform="translate(-54 0)"/><path class="cls-1" d="M221,127.71a10,10,0,0,0-14.14,0L193.1,141.5l-1.17-1.17a10,10,0,0,0-14.15,14.15l8.24,8.24a10,10,0,0,0,14.15,0L221,141.86A10,10,0,0,0,221,127.71Z" transform="translate(-54 0)"/><path class="cls-1" d="M200,283.71H162v-38a10,10,0,0,0-20,0v48a10,10,0,0,0,10,10h48a10,10,0,0,0,0-20Z" transform="translate(-54 0)"/><path class="cls-1" d="M221,235.42a10,10,0,0,0-14.14,0L193.1,249.21,191.93,248a10,10,0,0,0-14.15,14.14l8.24,8.24a10,10,0,0,0,14.15,0L221,249.57A10,10,0,0,0,221,235.42Z" transform="translate(-54 0)"/><path class="cls-1" d="M200,392H162V354a10,10,0,0,0-20,0v48a10,10,0,0,0,10,10h48a10,10,0,0,0,0-20Z" transform="translate(-54 0)"/><path class="cls-1" d="M221,343.71a10,10,0,0,0-14.14,0L193.1,357.5l-1.17-1.17a10,10,0,1,0-14.15,14.15l8.24,8.24a10,10,0,0,0,14.15,0L221,357.86A10,10,0,0,0,221,343.71Z" transform="translate(-54 0)"/></svg>