<svg id="Layer_1" data-name="Layer 1" xmlns="http://www.w3.org/2000/svg" viewBox="0 0 512 510.68"><defs><style>.cls-1{fill:#666;}</style></defs><title>Векторный смарт-объект12</title><path class="cls-1" d="M500.23,270.05H425.69V212.66a11.77,11.77,0,0,0-11.77-11.77h-48.1l27.69-48,64,37a11.82,11.82,0,0,0,5.89,1.58,11.85,11.85,0,0,0,10.19-5.89l20.6-35.68a11.77,11.77,0,0,0-1.39-13.69c-46.93-52.9-98-106.86-161.42-134.58a11.77,11.77,0,0,0-14.91,4.9L278.26,72.8a11.77,11.77,0,0,0,4.31,16.08l39.59,22.86-69.4,120.19L173.87,115l-2.2-16.82a11.66,11.66,0,0,0-1.91-5.05L139.92,48.86a11.76,11.76,0,0,0-16.34-3.17L69.92,81.88a11.77,11.77,0,0,0-3.17,16.34l29.83,44.23a11.73,11.73,0,0,0,4,3.67l14.77,8.34,78,115.59H147.67l-46.46-95.49A11.77,11.77,0,0,0,80,184.86l41.45,85.19H91.71L73.16,227.84a11.77,11.77,0,0,0-21.55,9.48L66,270.05H11.77A11.77,11.77,0,0,0,0,281.82v64.74a11.77,11.77,0,0,0,11.77,11.77h20.6V499.57a11.77,11.77,0,0,0,11.77,11.77H467.86a11.77,11.77,0,0,0,11.77-11.77V358.33h20.6A11.77,11.77,0,0,0,512,346.56V281.82A11.77,11.77,0,0,0,500.23,270.05Zm-98.08-45.62v45.62H325.89l26.34-45.62Zm-97.62-150,27-46.73c52.39,25.82,96.92,71.78,138.08,117.86l-10.46,18.13ZM263.73,260l0,0,78.8-136.48,30.57,17.65L298.71,270.05H257.94ZM133.29,139a11.92,11.92,0,0,0-4-3.67L114.55,127,92.85,94.81l34.14-23L148.69,104l2.2,16.81a11.65,11.65,0,0,0,1.91,5.06l86.87,128.78-8.92,15.44h-9.06Zm322.8,300H407.25a11.77,11.77,0,0,0,0,23.54h48.84V487.8H55.91V462.49h48.84a11.77,11.77,0,0,0,0-23.54H55.91V358.33H191.26v41.19A11.78,11.78,0,0,0,203,411.29H309a11.78,11.78,0,0,0,11.77-11.77V358.33H456.09V439ZM214.8,387.75V358.33h82.4v29.42Zm273.66-53H23.54v-41.2H488.46v41.2Z" transform="translate(0 -0.66)"/><path class="cls-1" d="M149.68,439H148.5a11.77,11.77,0,0,0,0,23.54h1.18a11.77,11.77,0,0,0,0-23.54Z" transform="translate(0 -0.66)"/><path class="cls-1" d="M362.32,462.49h1.18a11.77,11.77,0,0,0,0-23.54h-1.18a11.77,11.77,0,1,0,0,23.54Z" transform="translate(0 -0.66)"/></svg>