<svg id="Layer_1" data-name="Layer 1" xmlns="http://www.w3.org/2000/svg" viewBox="0 0 45.38 45.43"><defs><style>.cls-1,.cls-2{fill:#666;}.cls-2{stroke:#666;stroke-miterlimit:10;stroke-width:0.4px;}</style></defs><title>Векторный смарт-объект13</title><path class="cls-1" d="M1257.44,874.55a.86.86,0,0,0,0,1.24.88.88,0,0,0,1.24-1.24.86.86,0,0,0-1.24,0Zm0,0" transform="translate(-1236.79 -840.02)"/><path class="cls-2" d="M1280,873l-6.68-5.68-.1-.07a4.38,4.38,0,0,0-5.47.6l-3.64,3.64a.86.86,0,0,1-.95.19,23.79,23.79,0,0,1-10-7.61,17.56,17.56,0,0,1-2.74-4.86,1,1,0,0,0,0-.18.88.88,0,0,1,.19-1l3.64-3.64a4.38,4.38,0,0,0,.6-5.47l0-.05-4.82-6.7a4.4,4.4,0,0,0-6.81-.72l-.73.73h0l-2.6,2.6c-3.1,3.1-3.61,7.77-1.47,13.49,1.84,4.9,5.51,10.26,10.35,15.1s10.46,8.7,15.51,10.54,10.31,2,14.08-1.71l2.45-2.45A4.4,4.4,0,0,0,1280,873Zm-7.77-4.3,6.67,5.68.1.07a2.64,2.64,0,0,1,.45,4.09l-.18.18-11.38-8.52,1.11-1.11a2.63,2.63,0,0,1,3.23-.39Zm-23.79-25.52,0,0,4.82,6.7a2.62,2.62,0,0,1-.38,3.26l-1.07,1.08-7.7-11.32.21-.21a2.64,2.64,0,0,1,4.09.45Zm16.32,39.12c-4.81-1.76-10.09-5.36-14.87-10.13s-8.19-9.81-9.94-14.48c-1.31-3.5-2.2-8.37,1.06-11.63l1.86-1.86,7.7,11.32-1.3,1.3a2.64,2.64,0,0,0-.6,2.8,19.58,19.58,0,0,0,2.85,5.25,25.76,25.76,0,0,0,11,8.44,2.65,2.65,0,0,0,2.88-.57l1.27-1.28L1278,880l-1,1c-3.49,3.49-8.58,2.63-12.23,1.3Zm0,0" transform="translate(-1236.79 -840.02)"/><path class="cls-1" d="M1255.79,872.45c-.93-.82-2.54-2.22-3.39-3.09a57.33,57.33,0,0,1-5.54-6.58.88.88,0,0,0-1.23-.22.87.87,0,0,0-.22,1.22,60,60,0,0,0,5.73,6.81c.9.92,2.52,2.33,3.49,3.18a.88.88,0,1,0,1.16-1.32Zm0,0" transform="translate(-1236.79 -840.02)"/></svg>