<svg id="_16" data-name="16" xmlns="http://www.w3.org/2000/svg" viewBox="0 0 63.97 38.87"><defs><style>.cls-1{fill:#666;}</style></defs><title>Векторный смарт-объект14</title><path class="cls-1" d="M1700.3,632.63a3.28,3.28,0,0,0-3.28-3.27h0l-57.37.08a3.25,3.25,0,0,0-2.32,1,3.3,3.3,0,0,0-.95,2.32l0,32.24a3.26,3.26,0,0,0,3.28,3.27h0l57.37-.08a3.28,3.28,0,0,0,3.28-3.28ZM1679,653.35l14.87,11.53-51,.07,15-11.6a1.64,1.64,0,0,0-2-2.59l-16.1,12.49,0-29,27.77,19.2a1.7,1.7,0,0,0,.94.29,1.61,1.61,0,0,0,.93-.3L1697,634.13l0,29.12L1681,650.76a1.64,1.64,0,0,0-2,2.59Zm-35.71-20.64,50.18-.07-25.07,17.43Z" transform="translate(-1636.38 -629.36)"/></svg>