<svg id="Layer_1" data-name="Layer 1" xmlns="http://www.w3.org/2000/svg" viewBox="0 0 42.01 61.88"><defs><style>.cls-1{fill:#666;}</style></defs><title>Векторный смарт-объект15</title><path class="cls-1" d="M1582.86,449.37a21,21,0,0,0-33.07,25.34L1567,504.5a1.21,1.21,0,0,0,2.1,0l17.16-29.79A21,21,0,0,0,1582.86,449.37ZM1568,445.64a18.58,18.58,0,0,1,16.11,27.87l-16.11,28-16.11-28A18.58,18.58,0,0,1,1568,445.64Z" transform="translate(-1546.99 -443.22)"/><path class="cls-1" d="M1568,477.92a14.45,14.45,0,1,0-14.45-14.45A14.46,14.46,0,0,0,1568,477.92Zm0-26.48a12,12,0,1,1-12,12A12,12,0,0,1,1568,451.44Z" transform="translate(-1546.99 -443.22)"/><path class="cls-1" d="M1560.53,468.17l4.53,3.3a1.18,1.18,0,0,0,.71.23l.27,0a1.15,1.15,0,0,0,.79-.6c2.74-5.1,8.54-12.15,8.59-12.22a1.21,1.21,0,1,0-1.86-1.54,106.61,106.61,0,0,0-8.18,11.41l-3.43-2.5a1.21,1.21,0,1,0-1.42,1.95Z" transform="translate(-1546.99 -443.22)"/><path class="cls-1" d="M1562.82,483.1a.65.65,0,0,0-.18-.15l-.21-.11a.88.88,0,0,0-.23-.07,1.24,1.24,0,0,0-.47,0,.81.81,0,0,0-.22.07,1,1,0,0,0-.21.11.9.9,0,0,0-.19.15s-.1.12-.15.18a2.12,2.12,0,0,0-.11.21,1.55,1.55,0,0,0-.07.23,1.79,1.79,0,0,0,0,.23,1.94,1.94,0,0,0,0,.24,2,2,0,0,0,.07.23,1.28,1.28,0,0,0,.11.2l.15.19.19.15a1,1,0,0,0,.21.11l.22.07.24,0,.23,0,.23-.07.21-.11.18-.15a.9.9,0,0,0,.15-.19.78.78,0,0,0,.11-.2,1,1,0,0,0,.07-.23,1,1,0,0,0,0-.24A1.2,1.2,0,0,0,1562.82,483.1Z" transform="translate(-1546.99 -443.22)"/><path class="cls-1" d="M1565.42,487.58a1.2,1.2,0,0,0-1.64-.45,1.21,1.21,0,0,0-.46,1.65l2.52,4.41a1.21,1.21,0,1,0,2.1-1.2Z" transform="translate(-1546.99 -443.22)"/></svg>