<svg id="Слой_1" data-name="Слой 1" xmlns="http://www.w3.org/2000/svg" viewBox="0 0 512 512"><defs><style>.cls-1{fill:#c8090d;}</style></defs><title>Векторный смарт-объект</title><path class="cls-1" d="M120,60h30V90H120Z"/><path class="cls-1" d="M180,60h30V90H180Z"/><path class="cls-1" d="M60,60H90V90H60Z"/><path class="cls-1" d="M120,120h30v30H120Z"/><path class="cls-1" d="M180,120h30v30H180Z"/><path class="cls-1" d="M60,120H90v30H60Z"/><path class="cls-1" d="M120,180h30v30H120Z"/><path class="cls-1" d="M180,180h30v30H180Z"/><path class="cls-1" d="M60,180H90v30H60Z"/><path class="cls-1" d="M512,293.81l-242-5V0H0V512H270V403.21l242-5ZM240,482H30V30H240V288.17L135.31,286H135a60,60,0,0,0,0,120h.16L240,403.83ZM482,368.81,134.86,376a30,30,0,0,1,0-60L482,323.19Z"/></svg>