<svg id="Capa_1" data-name="Capa 1" xmlns="http://www.w3.org/2000/svg" viewBox="0 0 404.03 404.03"><defs><style>.cls-1{fill:#c8090d;}</style></defs><title>Векторный смарт-объект1</title><path class="cls-1" d="M440.19,211.65H418.82a167.72,167.72,0,0,0-16.33-39.45l15.1-15.1a17.79,17.79,0,0,0,0-25.18L380.06,94.39a17.79,17.79,0,0,0-25.18,0l-15.1,15.1a167.72,167.72,0,0,0-39.45-16.33V71.79A17.82,17.82,0,0,0,282.52,54H229.44a17.81,17.81,0,0,0-17.8,17.8V93.21a167.77,167.77,0,0,0-39.38,16.35L157.08,94.39a17.79,17.79,0,0,0-25.18,0L94.37,131.92a17.79,17.79,0,0,0,0,25.18l15.23,15.23a167.07,167.07,0,0,0-16.26,39.33H71.77A17.81,17.81,0,0,0,54,229.46v53.08a17.82,17.82,0,0,0,17.8,17.81H93.39a168,168,0,0,0,16.28,39.25l-15.3,15.3a17.79,17.79,0,0,0,0,25.18l37.53,37.53a17.79,17.79,0,0,0,25.18,0l15.3-15.3a168,168,0,0,0,39.25,16.28v21.62A17.83,17.83,0,0,0,229.44,458h53.08a17.82,17.82,0,0,0,17.8-17.81V418.64a167.24,167.24,0,0,0,39.33-16.26l15.23,15.23a17.79,17.79,0,0,0,25.18,0l37.53-37.53a17.79,17.79,0,0,0,0-25.18l-15.17-15.18a167.77,167.77,0,0,0,16.35-39.38h21.42A17.82,17.82,0,0,0,458,282.54V229.46A17.83,17.83,0,0,0,440.19,211.65ZM438,280.34H417.08a17.77,17.77,0,0,0-17.21,13.26,148,148,0,0,1-15.57,37.5,17.77,17.77,0,0,0,2.78,21.57l14.82,14.82-34.43,34.43L352.6,387.05a17.78,17.78,0,0,0-21.55-2.8,148,148,0,0,1-37.45,15.49A17.77,17.77,0,0,0,280.32,417V438H231.63V416.9a17.78,17.78,0,0,0-13.25-17.21A147.58,147.58,0,0,1,181,384.19,17.78,17.78,0,0,0,159.43,387l-14.94,14.95-34.43-34.43L125,352.55A17.79,17.79,0,0,0,127.79,331a147.43,147.43,0,0,1-15.5-37.39,17.79,17.79,0,0,0-17.22-13.25H74V231.65H95a17.76,17.76,0,0,0,17.22-13.27,147.6,147.6,0,0,1,15.49-37.45,17.79,17.79,0,0,0-2.8-21.55l-14.87-14.87,34.43-34.43,14.82,14.82a17.77,17.77,0,0,0,21.57,2.78,147.28,147.28,0,0,1,37.5-15.57A17.77,17.77,0,0,0,231.63,94.9V74h48.69V94.85a17.79,17.79,0,0,0,13.28,17.22,147.27,147.27,0,0,1,37.56,15.55,17.78,17.78,0,0,0,21.56-2.79l14.75-14.75,34.43,34.43-14.75,14.75a17.78,17.78,0,0,0-2.79,21.56,147.65,147.65,0,0,1,15.56,37.56,17.77,17.77,0,0,0,17.21,13.28H438v48.68Z" transform="translate(-53.97 -53.99)"/><path class="cls-1" d="M296.47,145.12a10,10,0,0,0-6.86,18.79,98,98,0,1,1-69.72.94,10,10,0,0,0-7.37-18.6,118,118,0,1,0,84-1.13Z" transform="translate(-53.97 -53.99)"/><path class="cls-1" d="M256.54,138H256a10,10,0,0,0,0,20h.5a10,10,0,0,0,.06-20Z" transform="translate(-53.97 -53.99)"/><path class="cls-1" d="M314.22,212.23H293a10,10,0,0,0-2.62,19.65l-24.69,24.68L245.14,236A10,10,0,0,0,231,236l-18.77,18.77a10,10,0,0,0,14.14,14.15l11.71-11.71,20.6,20.6a10,10,0,0,0,14.14,0L304.57,246a10,10,0,0,0,19.65-2.6V222.23A10,10,0,0,0,314.22,212.23Z" transform="translate(-53.97 -53.99)"/><path class="cls-1" d="M203.35,277.74a10,10,0,1,0,2.93,7.07A10,10,0,0,0,203.35,277.74Z" transform="translate(-53.97 -53.99)"/></svg>