<svg id="Capa_1" data-name="Capa 1" xmlns="http://www.w3.org/2000/svg" viewBox="0 0 512 512"><defs><style>.cls-1{fill:#c8090d;}</style></defs><title>Векторный смарт-объект5</title><path class="cls-1" d="M196,100a10,10,0,1,0,10,10A10,10,0,0,0,196,100Z"/><path class="cls-1" d="M502,326H466V70a30,30,0,0,0-30-30H324.28A30,30,0,0,0,296,20H284.29a30,30,0,0,0-56.59,0H216a30,30,0,0,0-28.28,20H76A30,30,0,0,0,46,70V326H10A10,10,0,0,0,0,336v20a30,30,0,0,0,30,30H92.55L46.74,498.22A10,10,0,0,0,56,512h50a10,10,0,0,0,9.26-6.22L164.15,386H226V502a10,10,0,0,0,10,10h40a10,10,0,0,0,10-10V386h51.85l48.89,119.78A10,10,0,0,0,396,512h50a10,10,0,0,0,9.26-13.78L409.45,386H482a30,30,0,0,0,30-30V336A10,10,0,0,0,502,326ZM206,50a10,10,0,0,1,10-10h20a10,10,0,0,0,10-10,10,10,0,0,1,20,0,10,10,0,0,0,10,10h20a10,10,0,0,1,10,10V60H206ZM66,70A10,10,0,0,1,76,60H186V70a10,10,0,0,0,10,10H316a10,10,0,0,0,10-10V60H436a10,10,0,0,1,10,10V291.07l-112.77-118a10,10,0,0,0-7.12-3.09H326a10,10,0,0,0-7.07,2.93L266,225.86l-2.93-2.93-70-70a10,10,0,0,0-14.14,0L66,265.86Zm0,224.14,120-120,62.93,62.93,51.73,51.73a10,10,0,0,0,14.14-14.14L280.14,240l45.7-45.7L446,320v6H66ZM99.28,492H70.88l43.27-106h28.4ZM266,492H246V386h20Zm165.12,0h-28.4L359.45,386h28.4ZM492,356a10,10,0,0,1-10,10H30a10,10,0,0,1-10-10V346H492Z"/><path class="cls-1" d="M276,100a30,30,0,1,0,30,30A30,30,0,0,0,276,100Zm0,40a10,10,0,1,1,10-10A10,10,0,0,1,276,140Z"/><path class="cls-1" d="M156,100H116a10,10,0,0,0,0,20h40a10,10,0,0,0,0-20Z"/><path class="cls-1" d="M396,120H356a10,10,0,0,0,0,20h40a10,10,0,0,0,0-20Z"/></svg>