<svg id="Layer_1" data-name="Layer 1" xmlns="http://www.w3.org/2000/svg" viewBox="0 0 512 512"><defs><style>.cls-1{fill:#c8090d;}</style></defs><title>Векторный смарт-объект7</title><path class="cls-1" d="M171.91,488H94.71v-6.67a90.6,90.6,0,0,0,39.49-74.78V347.79c0-.21,0-.41,0-.61a82.26,82.26,0,0,0,41.9-71.61V237a10,10,0,0,0-10-10H38.27A85.41,85.41,0,0,0-47,312.31v94.24A90.56,90.56,0,0,0-9.13,480.22V488h-77.2A86.77,86.77,0,0,0-173,574.67V702a10,10,0,0,0,10,10H248.58a10,10,0,0,0,10-10V574.67A86.77,86.77,0,0,0,171.91,488ZM128.26,588.48,154,602.82,106,692H94.71V665.67a10,10,0,0,0-20,0V692H10.87V556.75a51.78,51.78,0,0,0,63.84,0v28.92a10,10,0,0,0,20,0V508h42L123.3,577.86A10,10,0,0,0,128.26,588.48ZM-20.62,692l-48-89.18,25.76-14.34a10,10,0,0,0,5-10.62L-51.28,508H-9.13V692ZM74.71,495.75v20.09a31.92,31.92,0,0,1-63.84,0V491.06a90.65,90.65,0,0,0,63.84.6v4.09ZM-27,312.31A65.39,65.39,0,0,1,38.27,247h117.8v28.57a62.29,62.29,0,0,1-62.22,62.22H-27Zm0,94.24V357.79H93.85a81.81,81.81,0,0,0,20.35-2.56v51.32a70.62,70.62,0,0,1-141.24,0ZM-153,574.67A66.75,66.75,0,0,1-86.33,508h14.69l12.74,66.52L-87,590.14a10,10,0,0,0-3.94,13.48L-43.33,692H-153ZM238.58,692H128.74l47.57-88.39a10,10,0,0,0-3.94-13.47l-28.06-15.62L157.05,508h14.86a66.75,66.75,0,0,1,66.67,66.67Z" transform="translate(173 -200)"/><path class="cls-1" d="M84.71,615.67a10,10,0,1,0,7.07,2.92A10.07,10.07,0,0,0,84.71,615.67Z" transform="translate(173 -200)"/><path class="cls-1" d="M254.67,316.15a10,10,0,0,0,14.15,0L299,286a10,10,0,0,0-14.14-14.14l-23.1,23.09-8.58-8.58A10,10,0,0,0,239,300.5Z" transform="translate(173 -200)"/><path class="cls-1" d="M329,200H209a10,10,0,0,0-10,10V378a10,10,0,0,0,10,10H329a10,10,0,0,0,10-10V210A10,10,0,0,0,329,200ZM319,368H219V220H319Z" transform="translate(173 -200)"/></svg>