<?xml version="1.0" encoding="utf-8"?>
<!-- Generator: Adobe Illustrator 19.1.0, SVG Export Plug-In . SVG Version: 6.00 Build 0)  -->
<svg version="1.1" id="Слой_1" xmlns="http://www.w3.org/2000/svg" xmlns:xlink="http://www.w3.org/1999/xlink" x="0px" y="0px"
	 viewBox="0 0 187.9 199.9" style="enable-background:new 0 0 187.9 199.9;" xml:space="preserve">
<style type="text/css">
	.st0{fill:#666666;}
</style>
<g>
	<g>
		<g>
			<path class="st0" d="M146.3,47.6c-1.3-1.3-3.5-1.3-4.8,0c-1.3,1.3-1.3,3.5,0,4.8c1.3,1.3,3.5,1.3,4.8,0
				C147.7,51,147.7,48.9,146.3,47.6z"/>
		</g>
	</g>
	<g>
		<g>
			<path class="st0" d="M30.9,146.1c-5.6,0-10.2,4.6-10.2,10.2s4.6,10.2,10.2,10.2s10.2-4.6,10.2-10.2S36.5,146.1,30.9,146.1z
				 M30.9,159.6c-1.9,0-3.4-1.5-3.4-3.4s1.5-3.4,3.4-3.4s3.4,1.5,3.4,3.4S32.8,159.6,30.9,159.6z"/>
		</g>
	</g>
	<g>
		<g>
			<path class="st0" d="M177.4,125.7H68.2V16.6c0-1.9-1.5-3.4-3.4-3.4H10.6c-1.9,0-3.4,1.5-3.4,3.4v139.7
				c0,16.8,13.7,30.5,30.5,30.5h139.7c1.9,0,3.4-1.5,3.4-3.4v-54.2C180.7,127.2,179.2,125.7,177.4,125.7z M13.9,19.9h47.5v34.9H13.9
				V19.9z M13.9,61.6h47.5v34.9H13.9V61.6z M13.9,103.3h47.5v22.4H37.7c-9.6,0-18.1,4.4-23.7,11.4V103.3z M47.8,180H37.7
				c-13.1,0-23.7-10.6-23.7-23.7s10.6-23.7,23.7-23.7h10.2V180z M90.6,180H54.6v-47.5h35.9V180z M132.3,180H97.3v-47.5h34.9V180z
				 M174,180H139v-47.5H174V180z"/>
		</g>
	</g>
	<g>
		<g>
			<path class="st0" d="M132.3,36.7c-11-6.5-23.5-10-36.3-10c-4.8,0-9.6,0.5-14.2,1.4c-1.8,0.4-3,2.2-2.6,4c0.4,1.8,2.2,3,4,2.6
				c4.2-0.9,8.5-1.3,12.9-1.3c11.6,0,22.9,3.1,32.8,9c0.5,0.3,1.1,0.5,1.7,0.5c1.2,0,2.3-0.6,2.9-1.7
				C134.4,39.7,133.9,37.6,132.3,36.7z"/>
		</g>
	</g>
	<g>
		<g>
			<path class="st0" d="M179.8,88.7c-1.3-1.3-3.5-1.3-4.8,0l-7.8,7.8c-0.2-12.3-3.7-24.3-9.9-34.9c-1-1.6-3-2.1-4.6-1.2
				s-2.1,3-1.2,4.6c5.6,9.5,8.7,20.3,9,31.4l-7.7-7.7c-1.3-1.3-3.5-1.3-4.8,0c-1.3,1.3-1.3,3.5,0,4.8l13.6,13.6c0.7,0.7,1.5,1,2.4,1
				s1.7-0.3,2.4-1l13.6-13.6C181.1,92.2,181.1,90.1,179.8,88.7z"/>
		</g>
	</g>
</g>
</svg>
