<?xml version="1.0" encoding="utf-8"?>
<!-- Generator: Adobe Illustrator 19.1.0, SVG Export Plug-In . SVG Version: 6.00 Build 0)  -->
<svg version="1.1" id="Слой_1" xmlns="http://www.w3.org/2000/svg" xmlns:xlink="http://www.w3.org/1999/xlink" x="0px" y="0px"
	 viewBox="0 0 187.9 199.9" style="enable-background:new 0 0 187.9 199.9;" xml:space="preserve">
<style type="text/css">
	.st0{fill:#666666;}
</style>
<g>
	<g>
		<g>
			<path class="st0" d="M122.8,67.5c-2,0-3.6,1.6-3.6,3.6c0,2,1.6,3.6,3.6,3.6s3.6-1.6,3.6-3.6C126.4,69.1,124.8,67.5,122.8,67.5z"
				/>
		</g>
	</g>
	<g>
		<g>
			<path class="st0" d="M168.5,82.2l-13.2-27.4V33.9c0-4.7-3-8.7-7.2-10.2v-5.3c0-6-4.9-10.8-10.8-10.8h-14.4
				c-6,0-10.8,4.9-10.8,10.8v5.3c-3.1,1.1-5.5,3.5-6.6,6.6H79.5c-3.4-4.5-8.7-7.2-14.4-7.2c-9.9,0-18,8.1-18,18
				c0,1.9,0.3,3.7,0.9,5.5L28.5,74.7C18.8,75,11,82.9,11,92.7c0,9.9,8.1,18,18,18l24.1,33c-2.1,1.2-4.1,2.6-5.8,4.3
				c-4,4-6.5,9.1-7.2,14.6c-8.3,1.6-14.7,8.9-14.7,17.7v8.3c0,2,1.6,3.6,3.6,3.6h115.5c2,0,3.6-1.6,3.6-3.6v-8.3
				c0-8.7-6.2-16-14.4-17.7v-11.2c0-2-1.6-3.6-3.6-3.6h-14.4c-2,0-3.6,1.6-3.6,3.6v10.8h-7.5c-1.8-12.2-12.3-21.7-25-21.7h-1.8
				L46.3,97.8c0.5-1.6,0.7-3.3,0.7-5.1c0-1.9-0.3-3.7-0.9-5.5l19.4-28.1c5.5-0.1,10.7-2.8,14-7.2h25.3v2.8L91.6,82.2
				c-4.8,1.1-8.4,5.4-8.4,10.6c0,6,4.9,10.8,10.8,10.8h18.4c1.7,8.2,9,14.4,17.7,14.4s16-6.2,17.7-14.4h18.4c6,0,10.8-4.9,10.8-10.8
				C177,87.6,173.3,83.3,168.5,82.2z M30.3,103.5c-0.4,0.1-0.9,0.1-1.3,0.1c-6,0-10.8-4.9-10.8-10.8S23,81.9,29,81.9
				c0.4,0,0.7,0,1.1,0.1c3.8,0.4,7.2,2.8,8.8,6.3l0,0c0.6,1.4,1,2.9,1,4.5c0,1.5-0.3,2.9-0.9,4.3C37.4,100.5,34.1,103,30.3,103.5z
				 M119.2,155.2h7.2v7.2h-7.2V155.2z M101.2,169.6h14.4H130c6,0,10.8,4.9,10.8,10.8v4.7H32.6v-4.7c0-6,4.9-10.8,10.8-10.8H101.2z
				 M79.5,147.9c8.7,0,16,6.2,17.7,14.4H47.4c0.7-3.4,2.4-6.6,4.9-9.1c2.1-2.1,4.6-3.6,7.4-4.5c1.7-0.5,3.6-0.8,5.4-0.8H79.5z
				 M68.8,140.7h-3.7c-1.7,0-3.4,0.2-5,0.5l-23.4-32.2c2.2-1,4.2-2.5,5.8-4.3L68.8,140.7z M42.2,80.4c-1.7-1.8-3.7-3.2-5.9-4.2
				l15.7-22.7c1.7,1.8,3.7,3.2,5.9,4.2L42.2,80.4z M74.5,46.5c-1.9,3.3-5.5,5.4-9.4,5.4c-0.4,0-0.7,0-1.1-0.1
				c-3.8-0.4-7.2-2.8-8.8-6.3c-0.6-1.4-1-2.9-1-4.5c0-6,4.9-10.8,10.8-10.8c3.9,0,7.4,2.1,9.4,5.4c0.9,1.6,1.4,3.5,1.4,5.4
				C75.9,43,75.4,44.9,74.5,46.5z M119.2,18.4c0-2,1.6-3.6,3.6-3.6h14.4c2,0,3.6,1.6,3.6,3.6v4.7h-21.7V18.4z M82.8,44.7
				c0.2-1.2,0.4-2.4,0.4-3.6s-0.1-2.4-0.4-3.6h22v7.2H82.8z M130,110.8c-4.7,0-8.7-3-10.2-7.2h20.4
				C138.8,107.8,134.7,110.8,130,110.8z M166.1,96.3H94c-2,0-3.6-1.6-3.6-3.6s1.6-3.6,3.6-3.6c1.4,0,2.6-0.8,3.3-2l14.4-30
				c0.2-0.5,0.4-1,0.4-1.6V33.9c0-2,1.6-3.6,3.6-3.6h28.9c2,0,3.6,1.6,3.6,3.6v21.7c0,0.5,0.1,1.1,0.4,1.6l5,10.3h-16.2
				c-2,0-3.6,1.6-3.6,3.6c0,2,1.6,3.6,3.6,3.6h19.6l6,12.4c0.6,1.2,1.9,2,3.3,2c2,0,3.6,1.6,3.6,3.6S168.1,96.3,166.1,96.3z"/>
		</g>
	</g>
</g>
</svg>
