<?xml version="1.0" encoding="utf-8"?>
<!-- Generator: Adobe Illustrator 19.1.0, SVG Export Plug-In . SVG Version: 6.00 Build 0)  -->
<svg version="1.1" id="Слой_1" xmlns="http://www.w3.org/2000/svg" xmlns:xlink="http://www.w3.org/1999/xlink" x="0px" y="0px"
	 viewBox="0 0 187.9 199.9" style="enable-background:new 0 0 187.9 199.9;" xml:space="preserve">
<style type="text/css">
	.st0{fill:#666666;}
</style>
<g>
	<g>
		<g>
			<path class="st0" d="M178.5,4.7l-18.3,13.7l-18.4,42.9H127l-5.8-12.6h3.8c6.9,0,12.6-5.6,12.6-12.5V23.5h6.3V4.6h-18.9v18.9h6.3
				v12.7c0,3.5-2.8,6.2-6.3,6.2h-6.7L110.2,25l9.6-4.8L88.2,6.7l-7.4,26c-0.2-15.5-12.8-28-28.3-28C36.9,4.7,24.1,17.4,24.1,33
				c0,9.4,4.8,18.3,12.6,23.5v4.7h-7.6l-0.5,2.6c-1.5,7.9-1.7,16.1-0.4,24.2L6.7,126.4l23.7,5.4v39.7h31.5v28.3h75.6V156
				c22-15.6,34.6-40.7,34.6-67.4l0-11.5c0-4.3-0.4-8.8-1.2-13.2l-0.5-2.6h-6.2l14.2-34L178.5,4.7L178.5,4.7z M131.2,17.3V11h6.3v6.3
				H131.2z M120,61.3h-11.9l-5.7-12.6h11.9L120,61.3z M92.3,15.3l12.5,5.4l-3,1.4l9.4,20.3H99.5l-7.7-16.8L89,27L92.3,15.3z
				 M101.1,61.3h-14v-6.2c0-3.5,2.8-6.4,6.3-6.4h2v0L101.1,61.3z M88.8,34.2l3.8,8.4C86,43,80.8,48.4,80.8,55.1v6.2H68.2v-4.7
				c6.3-4.2,10.6-10.8,12-18.2L88.8,34.2z M30.4,33c0-12.2,9.9-22,22-22s22,9.9,22,22c0,7.8-4.2,15.1-11,19.1L61.9,53v8.3h-6.3V41.9
				c3.7-1.3,6.3-4.8,6.3-8.9c0-5.2-4.2-9.4-9.4-9.4S43,27.8,43,33c0,4.1,2.6,7.6,6.3,8.9v19.4H43V53l-1.6-0.9
				C34.7,48.2,30.4,40.9,30.4,33z M52.5,36.2c-1.7,0-3.1-1.4-3.1-3.1c0-1.7,1.4-3.1,3.1-3.1s3.1,1.4,3.1,3.1
				C55.6,34.8,54.2,36.2,52.5,36.2z M165.2,67.6c0.5,3.1,0.7,6.3,0.7,9.4l0,11.5c0,25.2-12.4,48.9-33.3,63.2l-1.4,0.9v40.9h-63
				v-28.3H36.7v-38.4l-20.4-4.7l18.4-32.9l-0.2-1.1c-1.2-6.9-1.2-14.3-0.2-20.6h2.4h31.5L165.2,67.6L165.2,67.6z M157.5,61.3h-8.9
				l15.7-36.6l7,3.5L157.5,61.3z M172.2,21.6l-3.5-1.7l3.5-2.6V21.6z"/>
			<path class="st0" d="M58.8,86.5c-5.2,0-9.4-3.1-9.4-9.4H43c0,9.4,7.1,15.7,15.7,15.7s15.7-6.3,15.7-15.7h-6.3
				C68.2,83.4,64,86.5,58.8,86.5z"/>
		</g>
	</g>
</g>
</svg>
