<?xml version="1.0" encoding="utf-8"?>
<!-- Generator: Adobe Illustrator 19.1.0, SVG Export Plug-In . SVG Version: 6.00 Build 0)  -->
<svg version="1.1" id="Слой_1" xmlns="http://www.w3.org/2000/svg" xmlns:xlink="http://www.w3.org/1999/xlink" x="0px" y="0px"
	 viewBox="0 0 187.9 199.9" style="enable-background:new 0 0 187.9 199.9;" xml:space="preserve">
<style type="text/css">
	.st0{fill:#666666;}
</style>
<g>
	<g>
		<g>
			<path class="st0" d="M149,130.4c-1.9,0-3.4,1.5-3.4,3.4c0,1.9,1.5,3.4,3.4,3.4c1.9,0,3.4-1.5,3.4-3.4
				C152.4,131.9,150.9,130.4,149,130.4z"/>
		</g>
	</g>
	<g>
		<g>
			<path class="st0" d="M122,170.9c-1.9,0-3.4,1.5-3.4,3.4c0,1.9,1.5,3.4,3.4,3.4s3.4-1.5,3.4-3.4
				C125.4,172.4,123.9,170.9,122,170.9z"/>
		</g>
	</g>
	<g>
		<g>
			<path class="st0" d="M94,62.8c-1.9,0-3.4,1.5-3.4,3.4s1.5,3.4,3.4,3.4s3.4-1.5,3.4-3.4S95.8,62.8,94,62.8z"/>
		</g>
	</g>
	<g>
		<g>
			<path class="st0" d="M65.9,22.2c-1.9,0-3.4,1.5-3.4,3.4c0,1.9,1.5,3.4,3.4,3.4s3.4-1.5,3.4-3.4C69.3,23.8,67.8,22.2,65.9,22.2z"
				/>
		</g>
	</g>
	<g>
		<g>
			<path class="st0" d="M38.9,130.4c-1.9,0-3.4,1.5-3.4,3.4c0,1.9,1.5,3.4,3.4,3.4s3.4-1.5,3.4-3.4
				C42.3,131.9,40.7,130.4,38.9,130.4z"/>
		</g>
	</g>
	<g>
		<g>
			<path class="st0" d="M177.1,49.3H44l10.7-22.2c0.5-1,0.4-2.3-0.2-3.3c-0.6-1-1.7-1.6-2.9-1.6H25.5c-1.2,0-2.2,0.6-2.9,1.6
				c-0.6,1-0.7,2.2-0.2,3.3l10.7,22.2H10.8c-1.9,0-3.4,1.5-3.4,3.4v94.6c0,1.9,1.5,3.4,3.4,3.4h132.5l-10.7,22.2
				c-0.5,1-0.4,2.3,0.2,3.3c0.6,1,1.7,1.6,2.9,1.6h26.2c1.2,0,2.2-0.6,2.9-1.6c0.6-1,0.7-2.2,0.2-3.3l-10.7-22.2h23
				c1.9,0,3.4-1.5,3.4-3.4V52.6C180.5,50.8,178.9,49.3,177.1,49.3z M30.9,29h15.4l-7.7,15.9L30.9,29z M62.5,143.9H14.2V56h21.3v64.2
				c0,1.9,1.5,3.4,3.4,3.4s3.4-1.5,3.4-3.4V56h20.3V143.9z M118.6,143.9H97.3V79.7c0-1.9-1.5-3.4-3.4-3.4s-3.4,1.5-3.4,3.4v64.2
				H69.3V56h49.3V143.9z M156.4,170.9H141l7.7-15.9L156.4,170.9z M173.7,143.9h-48.3V56h20.3v64.2c0,1.9,1.5,3.4,3.4,3.4
				c1.9,0,3.4-1.5,3.4-3.4V56h21.3V143.9z"/>
		</g>
	</g>
	<g>
		<g>
			<path class="st0" d="M108.5,170.9H38.9c-1.9,0-3.4,1.5-3.4,3.4c0,1.9,1.5,3.4,3.4,3.4h69.6c1.9,0,3.4-1.5,3.4-3.4
				C111.9,172.4,110.4,170.9,108.5,170.9z"/>
		</g>
	</g>
	<g>
		<g>
			<path class="st0" d="M149,22.2H79.4c-1.9,0-3.4,1.5-3.4,3.4c0,1.9,1.5,3.4,3.4,3.4H149c1.9,0,3.4-1.5,3.4-3.4
				C152.4,23.8,150.9,22.2,149,22.2z"/>
		</g>
	</g>
</g>
</svg>
