<?xml version="1.0" encoding="utf-8"?>
<!-- Generator: Adobe Illustrator 19.1.0, SVG Export Plug-In . SVG Version: 6.00 Build 0)  -->
<svg version="1.1" id="Слой_1" xmlns="http://www.w3.org/2000/svg" xmlns:xlink="http://www.w3.org/1999/xlink" x="0px" y="0px"
	 viewBox="0 0 187.9 199.9" style="enable-background:new 0 0 187.9 199.9;" xml:space="preserve">
<style type="text/css">
	.st0{fill:#666666;}
</style>
<g>
	<g>
		<g>
			<path class="st0" d="M138.9,161.4c-2,0-3.6,1.6-3.6,3.6c0,2,1.6,3.6,3.6,3.6c2,0,3.6-1.6,3.6-3.6
				C142.6,163,140.9,161.4,138.9,161.4z"/>
		</g>
	</g>
	<g>
		<g>
			<path class="st0" d="M124.2,42.1c-1-1.7-3.2-2.3-4.9-1.3c-1.7,1-2.3,3.2-1.3,4.9c1,1.7,3.2,2.3,4.9,1.3
				C124.6,46,125.2,43.8,124.2,42.1z"/>
		</g>
	</g>
	<g>
		<g>
			<path class="st0" d="M23.6,114.9c-1.7-1-3.9-0.4-4.9,1.3c-1,1.7-0.4,3.9,1.3,4.9c1.7,1,3.9,0.4,4.9-1.3
				C26,118.1,25.4,115.9,23.6,114.9z"/>
		</g>
	</g>
	<g>
		<g>
			<path class="st0" d="M176.1,93.9c-6.2-8.8-14.5-15.6-24.3-19.9c0-0.4,0-0.8,0-1.2c0-31.9-26-57.9-57.9-57.9s-57.9,26-57.9,57.9
				c0,0.4,0,0.8,0,1.2C26.3,78.3,18,85.1,11.8,93.9C5,103.7,1.4,115.1,1.4,127.1c0,31.9,26,57.9,57.9,57.9
				c12.5,0,24.8-4.1,34.7-11.6c10,7.5,22.2,11.6,34.7,11.6c31.9,0,57.9-26,57.9-57.9C186.6,115.1,182.9,103.7,176.1,93.9z M94,22.2
				c27.5,0,49.9,22,50.6,49.2c-5.1-1.5-10.5-2.2-15.9-2.2c-12.5,0-24.8,4.1-34.7,11.6c-10-7.5-22.2-11.6-34.7-11.6
				c-5.4,0-10.7,0.7-15.9,2.2C44.1,44.1,66.5,22.2,94,22.2z M94,90.2c8.6,8.1,14.1,19.1,15.6,30.8c-5,1.6-10.2,2.4-15.6,2.4
				s-10.5-0.8-15.6-2.4C79.8,109.3,85.4,98.4,94,90.2z M71.5,118.2c-15.2-7.6-25.8-22.4-27.8-39.3c5-1.6,10.2-2.4,15.5-2.4
				c10.4,0,20.6,3.2,29.1,9.2C79.3,94.4,73.4,105.9,71.5,118.2z M99.6,85.6c8.5-5.9,18.6-9.2,29.1-9.2c5.3,0,10.5,0.8,15.5,2.4
				c-2,16.9-12.6,31.8-27.8,39.3C114.5,105.9,108.6,94.4,99.6,85.6z M59.2,177.7c-27.9,0-50.6-22.7-50.6-50.6
				c0-19.2,11.2-36.9,28.2-45.4c3,19.5,15.9,36.3,34.1,44.2c0,0.4,0,0.8,0,1.2c0,15.7,6.3,30.6,17.5,41.5
				C79.8,174.5,69.7,177.7,59.2,177.7z M94,163.9c-9.8-9.2-15.5-21.9-15.9-35.4c5.1,1.5,10.5,2.2,15.9,2.2s10.8-0.7,15.9-2.2
				C109.5,142,103.8,154.7,94,163.9z M128.7,177.7c-10.4,0-20.6-3.2-29.1-9.2c11.2-10.9,17.5-25.7,17.5-41.5c0-0.4,0-0.8,0-1.2
				c18.2-7.9,31-24.7,34.1-44.2c17,8.5,28.2,26.1,28.2,45.4C179.3,155,156.6,177.7,128.7,177.7z"/>
		</g>
	</g>
	<g>
		<g>
			<path class="st0" d="M110.3,32.6c-5.2-2.1-10.7-3.2-16.3-3.2s-11.1,1.1-16.3,3.2c-1.9,0.7-2.7,2.9-2,4.7c0.8,1.9,2.9,2.7,4.7,2
				c4.3-1.8,8.9-2.6,13.6-2.6s9.3,0.9,13.6,2.6c0.4,0.2,0.9,0.3,1.4,0.3c1.4,0,2.8-0.9,3.4-2.3C113,35.5,112.1,33.4,110.3,32.6z"/>
		</g>
	</g>
	<g>
		<g>
			<path class="st0" d="M38.3,155.6c-3.7-2.9-6.7-6.4-9.1-10.5c-2.4-4.1-3.9-8.5-4.5-13.1c-0.3-2-2.1-3.4-4.1-3.1
				c-2,0.3-3.4,2.1-3.1,4.1c0.8,5.6,2.6,10.9,5.4,15.7c2.8,4.9,6.5,9.1,10.9,12.6c0.7,0.5,1.4,0.8,2.2,0.8c1.1,0,2.1-0.5,2.9-1.4
				C40.1,159.1,39.8,156.9,38.3,155.6z"/>
		</g>
	</g>
	<g>
		<g>
			<path class="st0" d="M167.4,129c-2-0.3-3.8,1.1-4.1,3.1c-0.6,4.6-2.2,9-4.5,13.1c-2.4,4.1-5.4,7.6-9.1,10.5
				c-1.6,1.2-1.9,3.5-0.6,5.1c0.7,0.9,1.8,1.4,2.9,1.4c0.8,0,1.6-0.2,2.2-0.8c4.4-3.5,8.1-7.7,10.9-12.6c2.8-4.9,4.6-10.2,5.4-15.7
				C170.7,131.1,169.3,129.2,167.4,129z"/>
		</g>
	</g>
</g>
</svg>
