<?xml version="1.0" encoding="utf-8"?>
<!-- Generator: Adobe Illustrator 19.1.0, SVG Export Plug-In . SVG Version: 6.00 Build 0)  -->
<svg version="1.1" id="Слой_1" xmlns="http://www.w3.org/2000/svg" xmlns:xlink="http://www.w3.org/1999/xlink" x="0px" y="0px"
	 viewBox="0 0 187.9 199.9" style="enable-background:new 0 0 187.9 199.9;" xml:space="preserve">
<style type="text/css">
	.st0{fill:#666666;}
</style>
<g id="outline">
	<path class="st0" d="M163.9,112.1h-15.2V87.8H94v-6.1H75.7v6.1h-9.1c-1.7,0-3-1.4-3-3v-9.1h6.1V57.4h-6.1V8.8H8.8v48.6H2.8v18.2
		h6.1v33.4c0,18.5,15,33.4,33.4,33.4h33.4v6.1H94v-6.1h54.7v-6.1h9.1c1.7,0,3,1.4,3,3v51.7h24.3v-57.8
		C185.1,121.6,175.6,112.1,163.9,112.1z M14.9,14.8h42.6v42.6H14.9V14.8z M8.8,63.5h54.7v6.1H8.8V63.5z M75.7,136.4H42.3
		c-15.1,0-27.3-12.3-27.4-27.4V75.6h42.6v9.1c0,5,4.1,9.1,9.1,9.1h9.1V136.4z M87.9,142.5h-6.1V87.8h6.1V142.5z M142.6,136.4H94
		V93.9h48.6V136.4z M179.1,185.1h-12.2v-45.6c0-5-4.1-9.1-9.1-9.1h-9.1v-12.2h15.2c8.4,0,15.2,6.8,15.2,15.2V185.1z"/>
	<rect x="136.5" y="166.8" class="st0" width="6.1" height="24.3"/>
	<rect x="148.7" y="154.7" class="st0" width="6.1" height="24.3"/>
	<rect x="130.4" y="124.3" class="st0" width="6.1" height="6.1"/>
	<rect x="118.3" y="124.3" class="st0" width="6.1" height="6.1"/>
	<path class="st0" d="M27.1,106V90.8H21V106c0,13.4,10.9,24.3,24.3,24.3h6.1v-6.1h-6.1C35.3,124.3,27.1,116.1,27.1,106z"/>
	<rect x="57.5" y="124.3" class="st0" width="6.1" height="6.1"/>
</g>
</svg>
