<svg id="_16" data-name="16" xmlns="http://www.w3.org/2000/svg" viewBox="0 0 49.65 49.65"><defs><style>.cls-1{fill:#c8090d;fill-rule:evenodd;}</style></defs><title>Векторный смарт-объект1</title><path class="cls-1" d="M740.31,1101A12.69,12.69,0,1,1,753,1113.66,12.7,12.7,0,0,1,740.31,1101Zm25.78-24.82H739.9a11.77,11.77,0,0,0-11.73,11.74v26.18a11.79,11.79,0,0,0,11.73,11.74h26.19a11.77,11.77,0,0,0,11.73-11.74v-26.18a11.75,11.75,0,0,0-11.73-11.74Zm-26.19,2.94h26.19a8.81,8.81,0,0,1,8.8,8.8v26.18a8.81,8.81,0,0,1-8.8,8.8H739.9a8.81,8.81,0,0,1-8.8-8.8v-26.18a8.81,8.81,0,0,1,8.8-8.8Zm28.79,3.7a2.58,2.58,0,1,0,2.58,2.57,2.57,2.57,0,0,0-2.58-2.57ZM769,1101a16,16,0,1,0-16,16,16,16,0,0,0,16-16Z" transform="translate(-728.17 -1076.15)"/></svg>