<?xml version="1.0" standalone="no"?>
<!DOCTYPE svg PUBLIC "-//W3C//DTD SVG 20010904//EN"
 "http://www.w3.org/TR/2001/REC-SVG-20010904/DTD/svg10.dtd">
<svg version="1.0" xmlns="http://www.w3.org/2000/svg"
 width="934.000000pt" height="934.000000pt" viewBox="0 0 934.000000 934.000000"
 preserveAspectRatio="xMidYMid meet">
<metadata>
Created by potrace 1.11, written by Peter Selinger 2001-2013
</metadata>
<g transform="translate(0.000000,934.000000) scale(0.100000,-0.100000)"
fill="#000000" stroke="none">
<path d="M3509 9336 c-2 -2 -35 -6 -74 -9 -107 -9 -178 -18 -195 -24 -8 -2
-29 -7 -47 -9 -18 -2 -65 -11 -105 -20 -40 -8 -82 -17 -93 -20 -15 -3 -164
-48 -260 -78 -5 -2 -19 -7 -30 -11 -11 -4 -59 -23 -107 -42 -99 -39 -266 -119
-353 -170 -56 -33 -208 -129 -230 -145 -51 -37 -213 -164 -243 -190 -87 -76
-302 -300 -357 -373 -33 -43 -67 -87 -75 -96 -37 -43 -120 -167 -120 -179 0
-6 -4 -10 -9 -10 -5 0 -13 -10 -17 -22 -3 -13 -12 -30 -19 -38 -7 -8 -28 -44
-46 -80 -19 -36 -36 -67 -39 -70 -8 -8 -111 -232 -114 -250 -1 -3 -4 -9 -7
-15 -4 -5 -12 -28 -19 -50 -7 -22 -17 -46 -23 -52 -5 -7 -7 -13 -3 -13 4 0 0
-13 -9 -30 -9 -16 -13 -30 -10 -30 3 0 -1 -13 -10 -30 -9 -16 -14 -30 -11 -30
2 0 -3 -21 -11 -47 -16 -52 -32 -114 -39 -153 -3 -14 -7 -34 -11 -44 -3 -11
-7 -35 -9 -53 -2 -18 -6 -38 -9 -43 -3 -5 -8 -31 -10 -57 -3 -26 -7 -59 -10
-73 -19 -95 -27 -487 -11 -590 5 -30 10 -64 12 -75 7 -42 15 -75 24 -100 5
-14 7 -25 5 -25 -3 0 10 -42 29 -92 99 -273 228 -466 448 -665 50 -46 268
-197 268 -187 0 4 8 0 18 -8 16 -14 152 -78 165 -78 3 0 18 -5 34 -12 15 -6
31 -12 36 -13 4 -2 9 -4 12 -5 3 -1 8 -3 13 -4 4 -2 27 -8 52 -15 189 -54 213
-55 1296 -56 l991 0 -379 -760 c-209 -418 -381 -762 -383 -765 -22 -38 -1650
-3300 -1648 -3300 9 0 53 33 53 40 0 4 21 30 48 57 86 90 357 375 547 578 66
70 140 149 165 175 25 26 108 114 185 196 77 81 158 166 180 189 44 46 269
284 335 355 23 25 101 108 173 184 73 77 150 158 172 181 202 215 319 338 370
391 62 65 237 250 314 333 65 69 290 307 341 361 25 25 104 108 175 184 139
147 143 152 335 355 69 74 148 157 175 186 42 43 244 257 360 380 124 132 298
317 340 360 28 29 109 115 180 191 72 75 146 154 165 174 19 20 96 101 170
180 74 78 155 164 180 190 44 47 246 261 345 365 28 30 105 111 171 182 67 70
141 148 164 173 107 114 290 308 340 360 57 60 247 260 391 414 46 49 107 112
134 141 28 29 97 103 155 165 58 62 115 122 128 133 12 12 22 24 22 28 0 5
-648 8 -1441 8 -793 0 -1443 2 -1445 4 -2 2 104 218 235 480 132 262 236 477
233 477 -4 0 -2 4 3 8 11 7 565 1111 565 1125 0 7 -3213 10 -3221 3z m-505
-1227 c-37 -74 -72 -137 -78 -141 -6 -4 -8 -8 -3 -8 10 0 -22 -62 -37 -72 -6
-4 -8 -8 -4 -8 4 0 -15 -43 -42 -95 -27 -52 -46 -95 -42 -95 4 0 2 -4 -3 -8
-6 -4 -75 -137 -155 -297 -79 -159 -149 -293 -155 -297 -5 -4 -7 -8 -3 -8 3 0
-86 -183 -198 -407 -112 -224 -204 -409 -204 -413 0 -3 311 -5 691 -5 380 0
693 -3 695 -7 2 -3 -41 -97 -96 -207 -71 -141 -106 -201 -118 -202 -114 -4
-1006 1 -1032 6 -52 9 -142 36 -165 49 -36 21 -120 83 -150 113 -54 54 -115
150 -130 208 -5 17 -9 35 -11 40 -13 46 -17 85 -16 185 1 63 3 131 6 150 3 19
8 53 10 75 5 41 11 80 21 125 4 14 8 34 10 45 6 34 13 58 28 105 9 25 21 64
27 88 11 42 39 109 107 252 31 65 154 266 172 280 3 3 19 23 36 45 90 122 271
297 388 375 20 14 37 28 37 33 0 4 5 7 11 7 6 0 29 12 52 28 23 15 51 33 62
40 64 41 344 166 353 157 1 -1 -28 -62 -64 -136z"/>
</g>
</svg>
