<?xml version="1.0" standalone="no"?>
<!DOCTYPE svg PUBLIC "-//W3C//DTD SVG 20010904//EN"
 "http://www.w3.org/TR/2001/REC-SVG-20010904/DTD/svg10.dtd">
<svg version="1.0" xmlns="http://www.w3.org/2000/svg"
 width="158.000000pt" height="158.000000pt" viewBox="0 0 158.000000 158.000000"
 preserveAspectRatio="xMidYMid meet">
<metadata>
Created by potrace 1.11, written by Peter Selinger 2001-2013
</metadata>
<g transform="translate(0.000000,158.000000) scale(0.100000,-0.100000)"
fill="#000000" stroke="none">
<path d="M167 1484 c-10 -10 -9 -1376 2 -1392 7 -11 74 -13 357 -9 318 3 356
6 433 26 196 50 352 172 429 332 58 119 76 219 69 383 -9 220 -53 333 -182
462 -90 90 -153 129 -275 170 l-85 28 -370 4 c-204 2 -374 0 -378 -4z m695
-213 c239 -61 358 -220 358 -477 0 -115 -13 -182 -50 -261 -57 -123 -171 -205
-330 -238 -82 -17 -371 -32 -413 -21 l-27 6 0 505 0 505 193 0 c159 0 207 -3
269 -19z"/>
</g>
</svg>
