<svg xmlns="http://www.w3.org/2000/svg" viewBox="0 0 52.362 51.014">
  <defs>
    <style>
      .cls-1 {
        fill: #fff;
        stroke: #707070;
      }
    </style>
  </defs>
  <g id="telegram-logo" transform="translate(0.502 0.5)">
    <path id="Path_19" data-name="Path 19" class="cls-1" d="M50.4,2.065A4.43,4.43,0,0,0,46.84.346,6.1,6.1,0,0,0,44,1.107L3.069,22.57a4.823,4.823,0,0,0,.48,9.145L8.78,33.783a8.921,8.921,0,0,0,3.3.6c.189,0,.37-.025.557-.035-.071.092-.158.164-.224.26a5.829,5.829,0,0,0-.141,5.565c.013.037.027.067.04.1,1.547,3.428,3.268,7.3,3.476,7.834a3.523,3.523,0,0,0,3.252,2.258c2.208,0,2.863-1.064,6.476-6.944a5.939,5.939,0,0,0,1.013-2.709c.422.171.819.329,1.158.466l5.8,2.362c1.162.474,2.179.892,2.715,1.114a3.605,3.605,0,0,0,.524.264A3.481,3.481,0,0,0,38,45.157c2.636,0,3.268-2.283,3.607-3.507.168-.605.4-1.443.647-2.368L51.1,6.8A5.259,5.259,0,0,0,50.4,2.065Zm-27.8,39.5S19.316,46.9,19.037,46.9c-.008,0-.012,0-.015-.012-.322-.865-3.563-8.046-3.563-8.046-.6-1.439-.489-2.672.538-2.672a2.163,2.163,0,0,1,.811.191l2.516,1.308a6.948,6.948,0,0,0,1.383.734l.127.048.237.119C23.015,39.6,23.634,39.976,22.6,41.566ZM47.763,5.891,38.927,38.373c-.5,1.83-.915,3.328-.923,3.328s-.017-.039-.017-.044-1.441-.6-3.2-1.322l-5.8-2.362c-1.761-.713-4.649-1.867-6.42-2.549l-.293-.118-1.083-.563a2.113,2.113,0,0,1-.089-3.329L39.042,12.2c.721-.769.992-1.166.836-1.166a4.132,4.132,0,0,0-1.189.778l-22.7,17.908a6.617,6.617,0,0,1-3.909,1.2,5.577,5.577,0,0,1-2.027-.353L4.825,28.506c-1.767-.7-1.834-1.99-.152-2.877L45.611,4.163A2.74,2.74,0,0,1,46.84,3.8C47.721,3.8,48.121,4.571,47.763,5.891Z" transform="translate(0 -0.346)"/>
  </g>
</svg>
