<svg xmlns="http://www.w3.org/2000/svg" viewBox="0 0 84.653 49.367">
  <defs>
    <style>
      .cls-1 {
        fill: rgb(244,220,49);
        stroke: rgb(244,220,49);
      }
    </style>
  </defs>
  <g id="vk" transform="translate(0 0)">
    <g id="Group_15" data-name="Group 15" transform="translate(0 0)">
      <g id="Group_14" data-name="Group 14">
        <path id="Path_20" data-name="Path 20" class="cls-1" d="M80.894,144.565a72.445,72.445,0,0,0-5.934-6.083c-.707-.67-1.438-1.362-2.143-2.05h0c-.947-.924-1.411-1.58-1.46-2.064a3.955,3.955,0,0,1,1.026-2.227C73.5,130.57,74.7,129,75.849,127.475c1.026-1.352,2.086-2.751,3.1-4.158L79.18,123c1.983-2.745,4.034-5.583,5.133-9.042a3.851,3.851,0,0,0-3.418-5.593,8.254,8.254,0,0,0-1.421-.093l-12.864-.011A4.525,4.525,0,0,0,62,111.4c-.673,1.691-1.468,3.65-2.388,5.509a44.82,44.82,0,0,1-7.245,11.165l-.144.153a4.315,4.315,0,0,1-.767.71,3.541,3.541,0,0,1-.739-2.146c0-.016,0-.033,0-.049l-.011-14.864a1.7,1.7,0,0,0-.015-.226c-.289-2.121-.851-4.247-4.207-4.909a1.68,1.68,0,0,0-.327-.032H32.777a5.949,5.949,0,0,0-4.917,2.4,2.267,2.267,0,0,0,1.387,4.029,2.794,2.794,0,0,1,2.446,2.677,43.3,43.3,0,0,1,.178,10.3,8.4,8.4,0,0,1-.555,2.547,1.955,1.955,0,0,1-.2.37,1.956,1.956,0,0,1-.363-.2,11.059,11.059,0,0,1-2.544-2.845,69.7,69.7,0,0,1-7.672-14.223,5.071,5.071,0,0,0-4.748-3.455c-4.122-.069-7.933-.067-11.65.005a4.1,4.1,0,0,0-3.654,1.64,4.109,4.109,0,0,0,.073,4.018c5.158,11.47,9.841,19.813,15.185,27.054a38.65,38.65,0,0,0,11.92,11.136,30.973,30.973,0,0,0,15.775,3.913q1.025,0,2.082-.05c3.706-.169,5.213-1.643,5.378-5.252a10.807,10.807,0,0,1,1.041-4.8,1.337,1.337,0,0,1,.622-.674,1.431,1.431,0,0,1,.924.32,9.74,9.74,0,0,1,1.8,1.617c.5.552,1.013,1.122,1.506,1.673,1.049,1.173,2.133,2.387,3.269,3.544a10.828,10.828,0,0,0,8.809,3.569l11.773.005h0c.037,0,.075,0,.112,0a3.963,3.963,0,0,0,3.221-2.063,5.237,5.237,0,0,0-.034-4.983A25.048,25.048,0,0,0,80.894,144.565Zm.154,7.741a.613.613,0,0,1-.466.353l-11.771-.005h0c-.046,0-.093,0-.139.006a7.417,7.417,0,0,1-6.2-2.565c-1.081-1.1-2.139-2.285-3.162-3.429-.5-.558-1.014-1.135-1.532-1.7a12.821,12.821,0,0,0-2.456-2.17,4.455,4.455,0,0,0-3.585-.762,4.379,4.379,0,0,0-2.755,2.323,14.058,14.058,0,0,0-1.453,6.259c-.058,1.259-.27,1.592-.359,1.676-.117.111-.506.306-1.806.365-6.246.294-11.487-.825-16.027-3.422a35.427,35.427,0,0,1-10.881-10.212c-5.2-7.04-9.767-15.193-14.823-26.434a2.86,2.86,0,0,1-.256-.8,2.88,2.88,0,0,1,.823-.106c3.678-.071,7.451-.073,11.535-.005.559.008,1.2.176,1.678,1.356a73.01,73.01,0,0,0,8.043,14.9,14.031,14.031,0,0,0,3.391,3.679,3.451,3.451,0,0,0,5.571-1.636,11.612,11.612,0,0,0,.809-3.566,46.57,46.57,0,0,0-.2-11.094,6.139,6.139,0,0,0-3.522-4.984,2.637,2.637,0,0,1,1.271-.254H45.984c.743.167.89.362.941.429a3.98,3.98,0,0,1,.411,1.484l.011,14.727c-.03,1.412.656,4.543,2.993,5.4l.058.02c2.127.7,3.534-.806,4.289-1.613l.135-.143A47.888,47.888,0,0,0,62.638,118.4c.975-1.967,1.8-4,2.5-5.755.349-.879.667-1.024,1.425-1.008h.031l12.881.011a5.492,5.492,0,0,1,.855.045,2.72,2.72,0,0,1,.95.285,2.693,2.693,0,0,1-.179.965c-.934,2.941-2.74,5.44-4.651,8.086l-.228.316c-.993,1.374-2.042,2.757-3.056,4.094-1.169,1.541-2.377,3.135-3.523,4.743-2.449,3.417-2.234,5.685.823,8.667.722.705,1.463,1.407,2.179,2.085a68.941,68.941,0,0,1,5.66,5.791,21.95,21.95,0,0,1,2.652,3.808A1.924,1.924,0,0,1,81.048,152.307Z" transform="translate(-0.002 -106.707)"/>
      </g>
    </g>
  </g>
</svg>
